<?xml version="1.0" encoding="utf-8"?>
<!-- Generator: Adobe Illustrator 21.1.0, SVG Export Plug-In . SVG Version: 6.00 Build 0)  -->
<svg version="1.1" id="Layer_1" xmlns="http://www.w3.org/2000/svg" xmlns:xlink="http://www.w3.org/1999/xlink" x="0px" y="0px"
	 viewBox="0 0 150 150" style="enable-background:new 0 0 150 150;" xml:space="preserve">
<style type="text/css">
	.st0{fill-rule:evenodd;clip-rule:evenodd;fill:#231F20;}
	.st1{fill:#231F20;}
</style>
<g>
	<path class="st0" d="M100.8,68.6c0.2,0,0.4-0.2,0.4-0.4v-3c0-0.2-0.2-0.4-0.4-0.4H90.6c-0.2,0-0.4,0.2-0.4,0.4v3
		c0,0.2,0.2,0.4,0.4,0.4h2.7c0.2,0,0.4,0.2,0.4,0.4v15.7c0,0.2,0.2,0.4,0.4,0.4h3.2c0.2,0,0.4-0.2,0.4-0.4V69c0-0.2,0.2-0.4,0.4-0.4
		H100.8z"/>
	<path class="st0" d="M78.6,85.2c0.2,0,0.4-0.2,0.4-0.4l0-19.5c0-0.2-0.2-0.4-0.4-0.4h-3c-0.2,0-0.4,0.2-0.4,0.4v8.7
		c0,0.2-0.1,0.2-0.1,0l-3.6-8.7c-0.1-0.2-0.3-0.4-0.6-0.4H68c-0.2,0-0.4,0.2-0.4,0.4v19.5c0,0.2,0.2,0.4,0.4,0.4h3
		c0.2,0,0.4-0.2,0.4-0.4v-9.2c0-0.2,0.1-0.2,0.1,0l3.8,9.2c0.1,0.2,0.3,0.4,0.6,0.4H78.6z"/>
	<path class="st0" d="M59.9,76.9c0-0.2,0-0.3,0.3-0.3H63c0.2,0,0.4-0.2,0.4-0.4v-2.9c0-0.2-0.2-0.4-0.4-0.4h-2.8
		c-0.2,0-0.3,0-0.3-0.3v-3.7c0-0.2,0-0.3,0.3-0.3H65c0.2,0,0.4-0.2,0.4-0.4v-3c0-0.2-0.2-0.4-0.4-0.4h-8.7c-0.2,0-0.4,0.2-0.4,0.4
		v19.5c0,0.2,0.2,0.4,0.4,0.4H65c0.2,0,0.4-0.2,0.4-0.4v-3c0-0.2-0.2-0.4-0.4-0.4h-4.8c-0.2,0-0.3,0-0.3-0.3V76.9z"/>
	<path class="st0" d="M47.4,77.1c0-0.2,0.1-0.2,0.1,0l3,7.7c0.1,0.2,0.3,0.4,0.5,0.4h3.3c0.2,0,0.3-0.2,0.3-0.4L50.8,75
		c-0.1-0.2-0.1-0.6,0-0.8l3.5-9c0.1-0.2,0-0.4-0.3-0.4h-3.3c-0.2,0-0.5,0.2-0.6,0.4l-2.6,7.2c-0.1,0.2-0.1,0.2-0.1,0v-7.1
		c0-0.2-0.2-0.4-0.4-0.4h-3c-0.2,0-0.4,0.2-0.4,0.4v19.5c0,0.2,0.2,0.4,0.4,0.4h3c0.2,0,0.4-0.2,0.4-0.4V77.1z"/>
	<path class="st0" d="M129,77.1c0-0.2,0.1-0.2,0.1,0l3,7.7c0.1,0.2,0.3,0.4,0.5,0.4h3.3c0.2,0,0.3-0.2,0.3-0.4l-3.9-9.8
		c-0.1-0.2-0.1-0.6,0-0.8l3.5-9c0.1-0.2,0-0.4-0.3-0.4h-3.3c-0.2,0-0.5,0.2-0.6,0.4l-2.6,7.2c-0.1,0.2-0.1,0.2-0.1,0v-7.1
		c0-0.2-0.2-0.4-0.4-0.4h-3c-0.2,0-0.4,0.2-0.4,0.4v19.5c0,0.2,0.2,0.4,0.4,0.4h3c0.2,0,0.4-0.2,0.4-0.4V77.1z"/>
	<path class="st0" d="M28.3,65.2c0-0.2-0.2-0.4-0.4-0.4h-3c-0.2,0-0.4,0.2-0.4,0.4v19.5c0,0.2,0.2,0.4,0.4,0.4h3
		c0.2,0,0.4-0.2,0.4-0.4V65.2z"/>
	<path class="st0" d="M87,73.5c-1.2-1.2-2.5-2.2-2.5-3.3c0-0.8,0.6-1.5,1.4-1.5c0.2,0,1.6,0,2.3,0h0c0.2,0,0.4-0.2,0.4-0.4v-3v0
		c0-0.2-0.2-0.4-0.4-0.4h-2.8c-3.1,0-4.8,2.2-4.8,5.2c0,2.5,1.5,4.2,3.5,6.1c1.2,1.1,2.1,1.9,2.1,3.3c0,1.2-0.7,1.8-1.8,1.8H81
		c-0.2,0-0.4,0.2-0.4,0.4v3c0,0.2,0.2,0.4,0.4,0.4l4.5,0h0c3.4,0.1,4.7-2.8,4.7-5.7C90.2,76.6,88.7,75.3,87,73.5"/>
	<path class="st0" d="M20.9,74.6c0,0-0.1-0.1-0.1-0.2c0-0.1,0.1-0.2,0.1-0.2c0.9-1,1.2-2,1.2-2.9v-2.4c0-2.9-1-4.1-4.2-4.1h-5.4
		c-0.2,0-0.4,0.2-0.4,0.4v19.5c0,0.2,0.2,0.4,0.4,0.4h5.7c3,0,4.1-2.1,4.1-5.1v-1.7C22.3,76.4,22,75.4,20.9,74.6 M15.8,68.7
		c0-0.2,0-0.3,0.3-0.3H17c0.9,0,1.2,0.6,1.2,2.3c0,1.9-0.5,2.2-1.2,2.2h-0.9c-0.2,0-0.3,0-0.3-0.3V68.7z M17.3,81.6h-1.2
		c-0.2,0-0.3,0-0.3-0.3V77c0-0.2,0-0.3,0.3-0.3h1.2c0.9,0,1.2,0.8,1.2,2.4C18.5,81.1,18.2,81.6,17.3,81.6"/>
	<path class="st0" d="M41.9,84.8l-3.3-8l0,0c0,0,0.3-0.1,0.3-0.1c1-0.5,2-1.6,2-3.7v-3.8c0-3.6-2.1-4.3-4.7-4.3h-5.1
		c-0.2,0-0.4,0.2-0.4,0.4V75v9.7v0c0,0.2,0.2,0.4,0.4,0.4h3c0.2,0,0.4-0.2,0.4-0.4v0v-7.7c0-0.2,0.1-0.2,0.1,0l3.1,7.7
		c0.1,0.2,0.3,0.4,0.5,0.4h3.3C41.9,85.2,42,85,41.9,84.8 M37.3,70.8c0,2.1-0.3,2.5-1.2,2.5h-1.2c-0.2,0-0.3,0-0.3-0.3v-4.3
		c0-0.2,0.1-0.3,0.3-0.3h1.2C37.1,68.4,37.3,69.3,37.3,70.8"/>
	<path class="st1" d="M121.9,85.2c-5.9,0-6.7-4.3-6.7-10.2c0-6,0.7-10.1,6.7-10.1h1.3c0.2,0,0.4,0.2,0.4,0.4l0,3
		c0,0.2-0.2,0.4-0.4,0.4h-1.4c-2.3,0-2.7,1.1-2.7,6.3c0,5.3,0.4,6.4,2.7,6.4l1.3,0h0c0.2,0,0.4,0.2,0.4,0.4v3c0,0.2-0.2,0.4-0.4,0.4
		H121.9z"/>
	<path class="st1" d="M107.6,64.8c5.9,0,6.3,4.2,6.3,10.1c0,6-0.4,10.2-6.3,10.2c-5.9,0-6.3-4.3-6.3-10.2
		C101.3,69,101.7,64.8,107.6,64.8 M107.6,81.4c2.3,0,2.4-1.1,2.4-6.4c0-5.2,0-6.5-2.4-6.5c-2.3,0-2.4,1.3-2.4,6.5
		C105.3,80.2,105.3,81.4,107.6,81.4"/>
	<path class="st1" d="M134.3,74.7c0-1.1,0.8-1.9,1.9-1.9c1.1,0,1.9,0.8,1.9,1.9c0,1.1-0.8,1.9-1.9,1.9
		C135.1,76.6,134.3,75.8,134.3,74.7z M137.8,74.7c0-0.9-0.7-1.6-1.6-1.6s-1.6,0.7-1.6,1.6c0,0.9,0.7,1.6,1.6,1.6
		S137.8,75.6,137.8,74.7z M135.5,75.7C135.5,75.7,135.5,75.7,135.5,75.7l-0.1-2c0,0,0-0.1,0.1-0.1h0.8c0.5,0,0.7,0.2,0.7,0.6
		c0,0.3-0.2,0.5-0.4,0.6l0.4,0.8c0,0,0,0.1,0,0.1h-0.3c0,0-0.1,0-0.1-0.1l-0.4-0.8h-0.4c0,0,0,0,0,0v0.7c0,0,0,0.1-0.1,0.1H135.5z
		 M136.7,74.3c0-0.2-0.1-0.3-0.3-0.3h-0.4c0,0,0,0,0,0v0.5c0,0,0,0,0,0h0.4C136.6,74.6,136.7,74.4,136.7,74.3z"/>
</g>
</svg>
