<?xml version="1.0" encoding="utf-8"?>
<!-- Generator: Adobe Illustrator 21.1.0, SVG Export Plug-In . SVG Version: 6.00 Build 0)  -->
<svg version="1.1" id="Layer_1" xmlns="http://www.w3.org/2000/svg" xmlns:xlink="http://www.w3.org/1999/xlink" x="0px" y="0px"
	 viewBox="0 0 150 150" style="enable-background:new 0 0 150 150;" xml:space="preserve">
<style type="text/css">
	.st0{fill:#231F20;}
</style>
<g>
	<path class="st0" d="M100.4,69.3c1.8,0,3.5,0.9,4.4,2.2c0,0,0,0.1,0.1,0.1c0,0.1,0.1,0.1,0.1,0.2l0,0c0.6,0.8,1.6,1.3,2.7,1.3
		c1.9,0,3.4-1.5,3.4-3.4c0-0.9-0.3-1.7-0.9-2.3c-2.4-2.9-5.1-4.6-9.8-4.6c-7.3,0-12.9,5.1-12.9,12.2c0,7.2,5.5,12.3,12.9,12.3
		c4.7,0,7.5-1.7,9.8-4.3l0,0c0.5-0.6,0.8-1.4,0.8-2.2c0-1.8-1.5-3.3-3.3-3.3c-1,0-1.9,0.4-2.5,1.2c-1.1,1.1-2.4,2.2-4.7,2.2
		c-3.4,0-5.2-2.4-5.2-5.9C95.1,71.6,97,69.3,100.4,69.3 M126.5,72.1c-3.2-0.7-4.7-0.9-4.7-2.2c0-0.9,0.8-1.4,2.5-1.4
		c1.8,0,3.4,0.8,4.5,1.8l0,0c0.5,0.5,1.2,0.8,2,0.8c1.6,0,2.9-1.3,2.9-2.9c0-0.9-0.4-1.6-1-2.2c-1.9-2-4.7-3.2-8.5-3.2
		c-5,0-9.1,2.2-9.1,7.4c0,4.9,3.6,6.7,6.8,7.5c3.8,1,5.3,1,5.3,2.3c0,1-0.8,1.4-3.2,1.4c-1.9,0-3.7-0.7-5.2-1.9l0.1,0.1c0,0,0,0,0,0
		c-1.2-1.1-3-1-4.1,0.1c-0.9,1-1.1,2.3-0.5,3.4c0,0,0,0.1,0.1,0.1c0.1,0.1,0.1,0.2,0.2,0.3c0,0.1,0.1,0.1,0.1,0.2
		c0.1,0.1,0.1,0.1,0.2,0.2c0,0,0.1,0.1,0.2,0.1c2,1.8,5,3.2,9.5,3.2c7.4,0,9.7-3.5,9.7-7.8C134.2,74.4,129.9,72.8,126.5,72.1
		 M22.2,69.3c1.8,0,3.5,0.9,4.4,2.2c0,0,0,0.1,0.1,0.1c0,0.1,0.1,0.1,0.1,0.2l0,0c0.6,0.8,1.6,1.3,2.7,1.3c1.9,0,3.4-1.5,3.4-3.4
		c0-0.9-0.3-1.7-0.9-2.3c-2.4-2.9-5.2-4.6-9.8-4.6c-7.3,0-12.9,5.1-12.9,12.2c0,7.2,5.5,12.3,12.9,12.3c4.7,0,7.5-1.7,9.8-4.3l0,0
		c0.5-0.6,0.8-1.4,0.8-2.2c0-1.8-1.5-3.3-3.3-3.3c-1,0-1.9,0.4-2.5,1.2c-1.1,1.1-2.4,2.2-4.7,2.2c-3.4,0-5.2-2.4-5.2-5.9
		C16.9,71.6,18.8,69.3,22.2,69.3 M70.6,81c-3.3,0-5.4-2.4-5.4-5.9c0-3.5,2-5.9,5.4-5.9c3.3,0,5.3,2.4,5.3,5.9
		C75.9,78.5,74,81,70.6,81 M70.6,62.7c-7.3,0-13,5.1-13,12.3c0,7.1,5.7,12.2,13,12.2c7.3,0,12.9-5.1,12.9-12.2
		C83.6,67.9,77.9,62.7,70.6,62.7 M54,64.3c-1.1-0.6-2-0.7-3.7-0.6c-3.1,0.3-5.5,2.4-5.9,3v0.2c0-0.1,0-0.1,0-0.1h0v0
		c-0.1-2-1.8-3.5-3.8-3.5c-2.1,0-3.8,1.7-3.8,3.7v16.7c0.1,2.1,1.7,3.7,3.8,3.7c2.1,0,3.8-1.7,3.8-3.8v-4.5c0-6.2,3.6-7.7,5.6-7.8
		c0.5,0,1.9,0.5,2.9,0.3C55,71,56.4,69,56,67C55.8,65.8,55,64.8,54,64.3"/>
	<path class="st0" d="M135.9,64v2.5h-0.8V64h-0.9v-0.6h2.5V64H135.9z M140,66.4v-2.2h0l-0.8,2.2h-0.5l-0.8-2.2h0v2.2h-0.7v-3h1
		l0.8,2l0.8-2h1v3H140z"/>
</g>
</svg>
