<svg id="Layer_1" data-name="Layer 1" xmlns="http://www.w3.org/2000/svg" viewBox="0 0 150 150"><defs><style>.cls-1{fill:#fff;}</style></defs><title>dr-martens</title><path class="cls-1" d="M136,62.52l-.17-1s-.13-.37-.13-.37l-.13-.32a5.29,5.29,0,0,0-5.05-3.43l1.47-.77-3.38-6.33s-7.82,4-8.39,4.38a6.61,6.61,0,0,0-3.43,5.38,4.7,4.7,0,0,0,.23,1.21A5.22,5.22,0,0,0,111,59a8.2,8.2,0,0,0-3.51,2.09l-.34-.85-8.65,3.36s.84,2.15,1.07,2.77a6.89,6.89,0,0,0-3.27-1.5h0s-.66-.81-.71-.86l3.89-3.51L99,59.9l1.78-1.77v-3a6.46,6.46,0,0,0-.8-1.52s-1.48-1.36-1.48-1.36l-.65.38s-2-.56-2-.56l-.67-.18h0a2.35,2.35,0,0,0-.86-1.72,2.45,2.45,0,0,0-2.5-2.23,2.55,2.55,0,0,0-2.59,2.49,2.33,2.33,0,0,0,.85,1.7h0l-1.22-.37-.22.81-.13,0-1.25-.25c0-.23.35-2.78.35-2.78l-1,.1c0-.27.2-1.56.2-1.56L82,48.5s-1.31,1.43-1.4,1.53c0-.49.14-1.89.14-1.89l-3.59,2.13c0-.36-.21-3.85-.21-3.85l-5.87,3.95s.13,2.63.13,2.75L71,53.3s-2.71-.4-3.14-.45A2.39,2.39,0,0,0,67,51.31a2.48,2.48,0,0,0-2.51-2.23,2.55,2.55,0,0,0-2.58,2.47l-.77.21c0-.29.1-1.62.1-1.62l-5.15,1.38-.21.53S53,59.8,52.78,60.35l-.85-.13-1.37,3.25,1.09.71c-.06.16-.31.75-.31.75l3.37,2.2c0,.05-.48.83-.55,1l-5,0v.63a6.12,6.12,0,0,0-4.57,0C41.68,70,39.94,73.11,39.94,77v.09s.07,1,.09,1.32h-.11c-.5,0-1.78-.18-1.79-.66l0-7.34c0-1.14,1.28-1.2,1.66-1.19l1.17,0V63h5.5l0-8.09a4,4,0,0,0-2.3-4,3.84,3.84,0,0,0-2.65,0v-.29H36V44.81a4.43,4.43,0,0,0-4.46-4.53H14.18v6.78l1.13,0c.17,0,1.66.06,1.72,1.19v7c-.06,1.07-1.55,1.13-1.72,1.13H14.19l0,12.83,1.18,0c.28,0,1.72,0,1.75,1.2l0,7.33c0,.44-1.25.67-1.89.66H14l0,7.85H26.84V81l.71.93s.48-.62.74-.94v5.32H41.38s0-3.21,0-3.65a.92.92,0,0,1,.07.13l.37.53L43,84.48l.75.54.88.47a5.3,5.3,0,0,0,2.18.43c0,.16.23.82.23.82,3.8,13.53,15.85,23,29.3,23,16,0,29.05-12.52,30.43-29.13,0,0,0-.63.07-.82,4.09-1.36,13-5,16.43-6.61l-.91-2.57,1.47,2.27,8.41-4.16a7.3,7.3,0,0,0,3.23-3.23s.06-.14.06-.14.28-.74.28-.74l0-.12v0L136,63.3v-.76h0Z"/><path d="M93.29,84.92c-.09-.14-.18-.28-.36-.28a.42.42,0,0,0-.23.46.5.5,0,0,0,.49.24c0-.14.19-.23.1-.42Z"/><polygon points="70.53 97.76 70.53 97.76 70.53 97.77 70.53 97.76 70.53 97.76"/><path d="M99.13,83.58c-.22,0-.58-.29-.31-.57,0-.33-.45-.47-.58-.14-.28.6.63.28.44.84a.56.56,0,0,1-.55.37c-.49,0-.08-.51-.35-.7a.38.38,0,0,0-.59,0c-.37.51.45.38.35.84,0,.14-.14.33-.32.28A.4.4,0,0,1,97,84a.6.6,0,0,0-.5-.24.85.85,0,0,0-.45.51c-.14.14-.32,0-.46,0-.58,0-.5,1-1.18.6-.18.13-.23.32-.36.46s-.55,0-.82,0c0,.24,0,.47-.28.61-.54.18-.49-.38-.67-.66-.45-.38-.54.37-.82.5-.85-.56-.64.93-1.45.5-.45-.05-.32.7-.82.6-.18-.09-.54-.23-.36-.51a.43.43,0,0,0-.36-.33c-.77.36.36.56.22,1.07a.56.56,0,0,1-.5.28.45.45,0,0,1-.26-.61.65.65,0,0,0-.5-.24c-.09.09-.27.19-.27.37s-.41.18-.64.14a.42.42,0,0,0-.36.27.47.47,0,0,1-.55.33c-.68,0,0-.61-.44-.8-.14-.19-.37,0-.46.09-.32.65.77.28.45.94a.46.46,0,0,1-.5.27.42.42,0,0,1-.27-.56c-.09-.14-.22-.33-.45-.29s-.32.47-.5.65c-.68-.61-.69.56-1.27.46-.28,0-.59-.24-.36-.52a.45.45,0,0,0-.41-.33c-.81.51.45.57.22,1a.39.39,0,0,1-.5.32c-.27,0-.27-.37-.22-.61a.61.61,0,0,0-.5-.24c-.22.05-.32.33-.41.51s-.54,0-.77,0c-.13.23-.27.6-.59.55s-.31-.37-.31-.65-.27-.29-.49-.24-.28.37-.42.55a.84.84,0,0,1-.81-.19c.09-.23.19-.51-.08-.66a.28.28,0,0,0-.41.14c-.37.56.63.33.44.89a.48.48,0,0,1-.5.33.5.5,0,0,1-.22-.61c-.53-.9-.77.41-1.36.26-.13,0-.4-.19-.27-.42,0-.23-.17-.47-.4-.47s-.32.32-.37.56c.14.14.36.14.5.28a.4.4,0,0,1-.14.52c-1,.27,0-.94-.76-.85-.68-.38-.42.74-1.09.55s0-.7-.45-.9c-.67-.33-.41.8-1.09.51-.68.09-.08-.66-.53-.85a.36.36,0,0,0-.46.14c-.37.7.72.29.49.94a.43.43,0,0,1-.45.27c-.45,0-.22-.61-.36-.79-.67-.62-.55.6-1.22.45a.44.44,0,0,1-.27-.61c-.49-.89-.77.37-1.27.22-.27,0-.54-.24-.35-.56a.46.46,0,0,0-.45-.33c-.91.64.63.52.3,1.12a.5.5,0,0,1-.54.33c-.5-.15,0-.66-.36-.9-.71-.47-.5.7-1.09.51-.54-.34-.5.41-.73.65-.18,0-.31-.06-.49-.06a.51.51,0,0,0-.32.42.57.57,0,0,0,.44.42.37.37,0,0,0,.32-.32.36.36,0,0,1,.5-.32.52.52,0,0,1,.27.56c0,.38-.5.28-.73.23a.58.58,0,0,0-.23.51.49.49,0,0,0,.45.33c.32,0,.28-.41.46-.6a.52.52,0,0,1,.59.24.59.59,0,0,1-.1.61c-.18,0-.32,0-.5-.06s-.27.19-.23.33a2,2,0,0,0,.32.33c.36.28.36-.28.5-.46.23,0,.45,0,.58.24s0,.37,0,.56.47.2.7.37a.08.08,0,0,1,0-.06l0-.11c0-.23.09-.56.43-.56s.5.22.5.42a0,0,0,0,0,0,0,0,0,0,0,1,0,0,.49.49,0,0,1,0,.12.46.46,0,0,1-.08.27.3.3,0,0,1-.25.12l-.44-.08a.29.29,0,0,1-.15-.1c0,.19-.22.41,0,.6.66.89.5-.61,1.22-.32.23,0,.27.33.27.52,0,.42-.46.32-.69.27.27.7.59-.13,1.09.24a.4.4,0,0,1,.17.52,1.24,1.24,0,0,0,.63.38s.14-.09.14-.18a.52.52,0,0,1,.5-.33.48.48,0,0,1,.27.52c-.32.65.63.38.85.8,0,.8.59,0,1,.11.32,0,.4.33.54.51.22.71.63-.13,1-.08s.45.47.71.71.55-.37.91-.28.4.43.58.67a.65.65,0,0,0,.59-.23,1.06,1.06,0,0,1,.86.19c0,.24-.14.42-.19.56-.27.14-.54,0-.81,0-.14.18-.27.55-.59.41s-.09-.51-.45-.66c-.54-.38-.59.61-1.13.37-.41,0-.09-.52-.4-.66-.54-.43-.59.51-1.14.32-.45,0-.13-.57-.49-.71-.54-.38-.5.51-1,.32-.41,0-.32-.47-.5-.66-.49-.52-.59.37-1.08.22-.18,0-.41-.28-.32-.47-.26-.84-.86,0-1.26,0s-.18-.56-.45-.8c-.44-.52-.68.27-1,.32-.18,0-.32-.24-.27-.47s.28-.19.5-.14c0-.09.18,0,.14-.18-.31-.57-.59.23-1-.06-.5,0-.22-.66-.58-.8s-.5,0-.59.23c-.64.27-.49-.57-.81-.8-.63,0-.31-.71-.76-.95s-.5.47-.86.28,0-.56-.31-.75c-.59,0-.58-.62-.85-1-.59,0-.45-.65-.9-.84-.13-.19-.27,0-.36.13a.35.35,0,0,1-.5,0,.5.5,0,0,1,.28-.7c-.22-.42-.72.18-.95-.33.1-.57-.22-.71-.62-.9,0-.7-.81-.8-1-1.41s-.45.18-.77,0a.58.58,0,0,1-.31-.66c0-.14-.18-.05-.31-.09a.3.3,0,0,0-.19.32,21.87,21.87,0,0,0,2.05,3.76,31,31,0,0,0,2.19,2.64c.31.42.76.57,1,1a24.51,24.51,0,0,0,11.84,6c.67,0,1.26.48,1.89.2.68.48,1.68.11,2.4.4a1.82,1.82,0,0,1,1.13,0c.59-.23,1.35.06,1.9-.21a21.92,21.92,0,0,0,3.58-.58A27.22,27.22,0,0,0,85,99.2c.5-.32,1.14-.36,1.59-.74a22.1,22.1,0,0,0,6.1-3.87,9.56,9.56,0,0,0,1.65-1.71,23.14,23.14,0,0,0,4-5.67c.28-1.07.92-2,1.12-3.12,0-.28.27-.84-.32-.51ZM70,89.65a.29.29,0,0,1,.38.14v0a.3.3,0,0,1,0,.29.29.29,0,0,1-.22.12.34.34,0,0,1-.12-.06s-.18-.16-.19-.18a.27.27,0,0,1,.19-.33Zm-.86.69a.22.22,0,0,1,.2.16.37.37,0,0,1,0,.18.27.27,0,0,1-.25.09.21.21,0,0,1-.11,0,.23.23,0,0,1-.05-.27.3.3,0,0,1,.22-.12Zm-.85-1.14a.42.42,0,0,1,.4-.09.36.36,0,0,1,.21.29s0,0,0,0,0,0,0,0h0a.5.5,0,0,1,0,.12.31.31,0,0,1-.19.29.22.22,0,0,1-.14,0l-.33-.08s-.08-.2-.08-.16a.38.38,0,0,1,.11-.39ZM67.89,91a.25.25,0,0,1,.27-.11s.1.12.11.16a.35.35,0,0,1,0,.2.28.28,0,0,1-.26.09.19.19,0,0,1-.1-.05.24.24,0,0,1,0-.29Zm-.24-1.23a.27.27,0,0,1,.16.26.13.13,0,0,0,0-.06c.09.18,0,.29-.12.39a.15.15,0,0,1-.09,0,.41.41,0,0,1-.33-.13c0-.07-.05-.15,0-.15a.28.28,0,0,1,.06-.3.32.32,0,0,1,.35,0Zm-.83-1.22a.22.22,0,0,1,.14,0,.55.55,0,0,1,.4.31h0s0,0,0,0h0s0,.37,0,.37a2.52,2.52,0,0,1-.34.27.44.44,0,0,1-.49-.42.56.56,0,0,1,.3-.53Zm-2.93.79a1,1,0,0,1,0-.18.47.47,0,0,1,.31-.42l.45.08.2.32s0,0,0,0a.62.62,0,0,1-.19.47.35.35,0,0,1-.31.08.53.53,0,0,1-.49-.37ZM65,90.73a.43.43,0,0,1-.4-.39c-.07-.3.18-.39.36-.44s.45,0,.45.37h0s0,0,0,0h0l-.14.35-.27.11Zm.67,1-.28,0s-.21-.26-.21-.27a.37.37,0,0,1,.27-.48.44.44,0,0,1,.46.18.15.15,0,0,1,0,.09c0,.14,0,.43-.28.5Zm0-1.77a.26.26,0,0,1-.07-.19.44.44,0,0,1,0-.1c0-.06,0-.13,0-.13s.21-.19.25-.21a.4.4,0,0,1,.37,0,.34.34,0,0,1,.13.27s0,0,0,0,0,0,0,0h0s0,0,0,.08a.39.39,0,0,1-.24.33.43.43,0,0,1-.44-.09ZM66.58,91a.4.4,0,0,1-.35-.28.31.31,0,0,1,.27-.31.28.28,0,0,1,.31.18v0a.37.37,0,0,1-.24.37Zm.23.85a.29.29,0,0,1,.13-.37.34.34,0,0,1,.43.11.1.1,0,0,1,0,.07c0,.25-.09.37-.21.36s-.28-.06-.37-.17Zm.84,1.26-.23-.08s-.13-.1-.13-.15c0-.27.1-.44.28-.5a.31.31,0,0,1,.31,0,.29.29,0,0,1,.13.26v0h0a.14.14,0,0,1,0,.07.37.37,0,0,1-.1.25.27.27,0,0,1-.28.09Zm1.08.62-.17.4-.21.1a.48.48,0,0,1-.41-.09.47.47,0,0,1-.16-.37.5.5,0,0,1,.34-.46.53.53,0,0,1,.61.39s0,0,0,0Zm.12-1.42a.19.19,0,0,1-.15.06.38.38,0,0,1-.15,0,.32.32,0,0,1-.06-.37s.15,0,.21,0,.17.09.18.15h0a.44.44,0,0,1,0,.2Zm.07.93a.34.34,0,0,1,.13-.33.36.36,0,0,1,.35,0,.26.26,0,0,1,.15.25h0c0,.28-.14.37-.27.37a.39.39,0,0,1-.36-.26Zm.93,1.39-.35-.13-.09-.25c0-.28.14-.46.32-.45l.27,0,.21.26h0s0,.07,0,.1c0,.21-.19.33-.38.44Zm.85.9c-.08.09-.18.12-.38.08s-.4-.1-.35-.38a.47.47,0,0,1,.32-.46.45.45,0,0,1,.51.3,0,0,0,0,0,0,0,.49.49,0,0,1-.11.44Zm0-4.39a.35.35,0,0,1-.24-.08.26.26,0,0,1,0-.24c0-.06.2,0,.26,0s.18.13.16.2a.19.19,0,0,1-.16.14Zm.43-1.51c-.17.06-.34,0-.45-.28a.45.45,0,0,1,.28-.5.53.53,0,0,1,.43.14.3.3,0,0,1,.07.18.43.43,0,0,1,0,0,.17.17,0,0,1,0,.07.38.38,0,0,1-.07.21.32.32,0,0,1-.26.13Zm.27.79a.29.29,0,0,1,.16-.35.27.27,0,0,1,.31.16s0,0,0,0l0,0h0a.18.18,0,0,1,0,.11.34.34,0,0,1-.1.2l-.14,0c-.06,0-.18,0-.27-.16Zm1,5.15h0l0,.27a1.58,1.58,0,0,1-.27.2l-.4-.11a1.65,1.65,0,0,0-.09-.22.39.39,0,0,1,.08-.33.35.35,0,0,1,.28-.14.47.47,0,0,1,.45.33h0s0,0,0,0Zm.31-5.5c-.18,0-.36-.11-.36-.28a.32.32,0,0,1,.1-.35.35.35,0,0,1,.39,0,.29.29,0,0,1,.14.26v0a.38.38,0,0,1-.27.36Zm.64.89s-.07.07-.11.05a1.86,1.86,0,0,1-.26-.17.25.25,0,0,1,0-.28.32.32,0,0,1,.35,0,.54.54,0,0,1,.07.13c0,.07.07.19-.1.28Zm1.16-.87-.17.33s-.05,0-.1,0a.29.29,0,0,1-.31-.24.3.3,0,0,1,.21-.39.17.17,0,0,1,.18,0l.18.16s0,0,0,.06Zm.48,1.22a.28.28,0,0,1-.26.09.21.21,0,0,1-.1,0,.23.23,0,0,1,0-.29A.23.23,0,0,1,74.8,91s.1.11.12.15a.46.46,0,0,1,0,.2Zm.29-1.46c-.17.06-.34,0-.44-.27a.39.39,0,0,1,.27-.41l.37.1.08.22a.42.42,0,0,1-.28.36Zm.69.88a.43.43,0,0,1-.2.07.24.24,0,0,1-.21-.12.22.22,0,0,1-.05-.11.24.24,0,0,1,.12-.21.26.26,0,0,1,.27,0,.32.32,0,0,1,.06.07.24.24,0,0,1,0,.3Zm-16.68.62a.27.27,0,0,1-.26.13,1.83,1.83,0,0,1-.31-.18.42.42,0,0,1,.27-.5c.18,0,.36.1.36.27h0a.17.17,0,0,1,0,.07.31.31,0,0,1-.07.21ZM64,95.23l0,0s0,0,0,0-.2.15-.35.14a.34.34,0,0,1-.1-.46.22.22,0,0,1,.23-.14.31.31,0,0,1,.27.2.3.3,0,0,1,0,.1.26.26,0,0,1-.07.16Zm2,1.5s-.09,0-.14,0-.13-.07-.16-.12a.25.25,0,0,1,.1-.33s.15,0,.19,0a.23.23,0,0,1,.07.19l-.06.16Zm1.71.2h0c0,.1,0,.22-.23.31s-.31,0-.3-.18a.28.28,0,0,1,.08-.33.29.29,0,0,1,.34,0,.2.2,0,0,1,.11.2v0Zm1.49.64a1.3,1.3,0,0,1-.23.07.22.22,0,0,1-.26-.14A.42.42,0,0,1,69,97a.31.31,0,0,1,.31.28l-.09.29Zm1.52.37v0s-.1.08-.15.09a.23.23,0,0,1-.18,0,.27.27,0,0,1,0-.27.22.22,0,0,1,.08-.13.19.19,0,0,1,.28.1s0,0,0,0,.09.13,0,.28ZM77,90.13a.35.35,0,0,1-.24.15.33.33,0,0,1-.31-.25.24.24,0,0,1,.09-.26.34.34,0,0,1,.35,0A.23.23,0,0,1,77,90a1.22,1.22,0,0,1,0,.17Zm.42,1.08a.29.29,0,0,1-.16,0,.24.24,0,0,1-.17-.17.28.28,0,0,1,.11-.25.26.26,0,0,1,.23,0,.3.3,0,0,1,.09.26s-.07.09-.1.12Zm.55-1.56s-.15.08-.2.08a.38.38,0,0,1-.4-.16.49.49,0,0,1,0-.12v-.1c0-.11,0-.3.21-.35a.39.39,0,0,1,.36.06.3.3,0,0,1,.13.23v0a.34.34,0,0,1-.07.31l0,.05Zm.59.75-.12.22s-.06,0-.11,0c-.22,0-.26-.1-.26-.19s0-.24.09-.25l.19,0,.19.13c.06,0,.06,0,0,.08Zm1-.42a.32.32,0,0,1-.25.14.2.2,0,0,1-.12-.06S79,89.9,79,89.89a.27.27,0,0,1,.05-.3.34.34,0,0,1,.35-.06.27.27,0,0,1,.17.26.07.07,0,0,0,0-.05.07.07,0,0,1,0,.05h0a.17.17,0,0,1,0,0,.33.33,0,0,1,0,.14Zm1-.55a.29.29,0,0,1-.22.13.32.32,0,0,1-.28,0,.36.36,0,0,1-.15-.28.29.29,0,0,1,.08-.32.42.42,0,0,1,.44-.07.33.33,0,0,1,.19.31h0a.17.17,0,0,1,0,.07.31.31,0,0,1-.07.21Zm.1.75a.43.43,0,0,0,.15.26c-.15,0-.15-.26-.15-.26Zm.22.1c0,.09-.09,0-.09-.1s.14,0,.09.1ZM82,89.79a.64.64,0,0,1-.13.1.23.23,0,0,1-.24,0,.29.29,0,0,1-.13-.22.28.28,0,0,1,.09-.27.31.31,0,0,1,.31,0,.23.23,0,0,1,.14.22.43.43,0,0,0,0,0,.09.09,0,0,0,0,0h0s0,0,0,.06a.23.23,0,0,1,0,.15Zm1-.48s-.12.07-.16,0a.33.33,0,0,1-.29,0,.24.24,0,0,1-.11-.19.33.33,0,0,1,.21-.44c.18-.09.33.06.42.16a.14.14,0,0,1,0,.1c0,.12,0,.29-.11.37Zm.17.72s0,0,0,0v0h0a.21.21,0,0,0,0,.06.38.38,0,0,0,.07.2c-.07,0-.07-.12-.07-.2Zm.25,0h0a.07.07,0,0,1,0,.07h-.06a0,0,0,0,0,0,0s0,0,0,0l0,0v0s0,0,0,.06,0-.07,0-.1l0,0s0,0,0,0v0h0a0,0,0,0,1,0,0c.07,0,.08,0,.08.1h0V90s0,0,0,.07Zm-.06-1.46a.68.68,0,0,1,0-.15c0-.17,0-.44.28-.51a.53.53,0,0,1,.42.17.33.33,0,0,1,.08.23v.07s0,.06,0,.09a.37.37,0,0,1-.29.36.43.43,0,0,1-.48-.26Zm1,1.16a.33.33,0,0,1-.3-.22.23.23,0,0,1,.1-.32.29.29,0,0,1,.37.12.43.43,0,0,1,0,.11.26.26,0,0,1-.19.31Zm1.11-.64c0,.05-.06.05-.11,0A.33.33,0,0,1,85,89a.24.24,0,0,1,0-.29.37.37,0,0,1,.37-.1.24.24,0,0,1,.15.24l-.12.28Zm1-.57c-.1,0-.25.07-.46-.16A.3.3,0,0,1,86,88a.37.37,0,0,1,.4-.07.26.26,0,0,1,.18.25.09.09,0,0,0,0,0,.07.07,0,0,1,0,0h0c0,.14-.07.23-.16.31Zm.85-.49a.43.43,0,0,1-.4-.29c-.07-.29,0-.53.27-.58a.35.35,0,0,1,.36.11.44.44,0,0,1,.13.14.66.66,0,0,1-.08.5.35.35,0,0,1-.28.12Zm.79.76s0,0,0,0l-.16.06a.15.15,0,0,1-.16,0c-.17-.17-.09-.3-.06-.34a.26.26,0,0,1,.32,0,.22.22,0,0,1,.09.3Zm1-.66a.21.21,0,0,1-.07.11l-.24.08c-.06,0-.06,0-.1,0a.28.28,0,0,1-.1-.26c0-.08.06-.14.2-.2a.28.28,0,0,1,.3.17.23.23,0,0,1,0,.14Zm.84-.42a.23.23,0,0,1-.25,0,.24.24,0,0,1-.12-.22.22.22,0,0,1,.12-.27.31.31,0,0,1,.36.13s0,.09,0,.1a.21.21,0,0,1-.12.26Zm1-.6a.29.29,0,0,1-.3,0c-.08,0-.12-.12-.11-.16a.27.27,0,0,1,.07-.32.32.32,0,0,1,.35,0,.26.26,0,0,1,.11.27v0c0,.23-.1.28-.12.26Zm1.12-.65a.21.21,0,0,1-.18.11.35.35,0,0,1-.44-.21s0-.12,0-.14a.39.39,0,0,1,.23-.43A.48.48,0,0,1,92,86a.31.31,0,0,1,.06.19v.06s0,0,0,.07a.28.28,0,0,1-.06.18Zm1.14.38a.24.24,0,0,1,0-.29s0,0,0,.07a.34.34,0,0,0,0,.17s0,0,0,0,0-.13,0-.13,0,0,0,0h0a.2.2,0,0,1,0-.09c.06,0,.08,0,.08,0l0,0s0,0,0,0a0,0,0,0,0,0,0v0a.08.08,0,0,1-.08,0h0s0,0,0,0a0,0,0,0,1,0,0h0a0,0,0,0,0,0,0,.25.25,0,0,0,0,.07s.1.11.15.09a.22.22,0,0,1-.26-.07Zm1.37-.66c0,.07-.09.18-.2.2a.26.26,0,0,1-.23-.1.52.52,0,0,1-.07-.21c0-.08.07-.15.21-.21a.27.27,0,0,1,.3.18.17.17,0,0,1,0,.14Zm.86-.43-.11,0a.2.2,0,0,1-.25-.13.3.3,0,0,1,0-.33.26.26,0,0,1,.26-.1.23.23,0,0,1,.18.21v0a.24.24,0,0,1-.12.29Zm1-.55s-.14,0-.18,0-.27-.1-.19-.23a.28.28,0,0,1,0-.32.32.32,0,0,1,.35-.06.31.31,0,0,1,.2.28.39.39,0,0,1-.21.35Z"/><path d="M70.53,97.76h0a.11.11,0,0,1,0-.05h0s0,0,0,.05Z"/><path d="M63.17,88.47a.4.4,0,0,0,.28-.37.58.58,0,0,0-.5-.38.48.48,0,0,0-.27.47.44.44,0,0,0,.49.28Z"/><path d="M62.51,87.25s.13-.09.09-.23-.27,0-.32.09a.24.24,0,0,0,.23.14Z"/><path d="M66.57,87.52c.05,0,.14-.09.1-.23s0-.09-.09-.09-.19.28,0,.32Z"/><path d="M64.13,87.78c.05-.09.14-.14.14-.28s-.14-.23-.27-.28-.23.23-.23.37.18.24.36.19Z"/><path d="M61.55,87.9c.05-.05.18-.14.18-.23-.09-.29-.45-.29-.45,0a.3.3,0,0,0,.27.19Z"/><path d="M68.15,88.1c.09-.09.32-.18.28-.37s-.41-.38-.5-.1,0,.42.22.47Z"/><path d="M65.6,92.65l0,0h0Z"/><path d="M60.59,88.45a.82.82,0,0,0,.14-.23c-.09-.14-.4-.24-.36,0,0,.09.09.19.22.19Z"/><path d="M62.13,89c.18-.1.36-.24.32-.47a.4.4,0,0,0-.41-.24.42.42,0,0,0-.27.37c.09.15.18.34.36.34Z"/><path d="M61.31,89.39a.31.31,0,0,0,0-.18c0-.1-.14-.24-.27-.19s0,.32.22.37Z"/><path d="M89.57,85.92c.09,0,.13-.14.14-.23s-.14-.19-.23-.19-.27.13-.23.27.18.29.32.15Z"/><path d="M90.48,85.32s.13-.09.14-.19a.27.27,0,0,0-.18-.14c-.28.09-.1.28,0,.33Z"/><path d="M86,86.77c.1,0,.23-.18.19-.32a.27.27,0,0,0-.5.09.44.44,0,0,0,.31.23Z"/><path d="M83.54,86.7s-.09-.09-.13-.09-.18.14,0,.23.09-.09.18-.14Z"/><path d="M94,84.55c.09-.09.19-.13.19-.23-.09-.28-.41-.19-.46.05.05.09.14.28.27.18Z"/><path d="M70.69,87.8s.22-.09.18-.24a.24.24,0,0,0-.22-.14c-.1,0-.19.14-.14.24s.09.14.18.14Z"/><path d="M95.06,83.72c0-.18-.27-.09-.23.1s.09.09.14.09.14-.09.09-.19Z"/><path d="M99.19,82.5a.37.37,0,0,0,.27.19c.13,0,.18-.19.18-.28-.08-.37-.49-.19-.45.09Z"/><path d="M77.52,87.67c-.09,0-.14-.19-.23-.19s-.22.24-.09.33.27,0,.32-.14Z"/><path d="M74.8,88.07a.26.26,0,0,0,.23-.28.27.27,0,0,0-.5,0c0,.1.13.24.27.24Z"/><path d="M79,88.44a.53.53,0,0,0,.23-.47c-.09-.09-.22-.28-.41-.24s-.27.23-.23.42.23.33.41.29Z"/><path d="M72.22,88.32a.31.31,0,0,0,.27-.37c0-.14-.17-.18-.31-.23a.32.32,0,0,0-.23.37c0,.09.18.23.27.23Z"/><path d="M82.45,87.53c.09,0,.27-.13.23-.28s-.18-.28-.32-.19-.22.1-.18.24a.29.29,0,0,0,.27.23Z"/><path d="M79.87,87.65c.09-.05.18-.09.18-.23s-.36-.1-.36.09c0,0,.09.19.18.14Z"/><path d="M93.29,84.92c-.09-.14-.18-.28-.36-.28a.42.42,0,0,0-.23.46.5.5,0,0,0,.49.24c0-.14.19-.23.1-.42Z"/><polygon points="70.53 97.76 70.53 97.76 70.53 97.77 70.53 97.76 70.53 97.76"/><path d="M99.13,83.58c-.22,0-.58-.29-.31-.57,0-.33-.45-.47-.58-.14-.28.6.63.28.44.84a.56.56,0,0,1-.55.37c-.49,0-.08-.51-.35-.7a.38.38,0,0,0-.59,0c-.37.51.45.38.35.84,0,.14-.14.33-.32.28A.4.4,0,0,1,97,84a.6.6,0,0,0-.5-.24.85.85,0,0,0-.45.51c-.14.14-.32,0-.46,0-.58,0-.5,1-1.18.6-.18.13-.23.32-.36.46s-.55,0-.82,0c0,.24,0,.47-.28.61-.54.18-.49-.38-.67-.66-.45-.38-.54.37-.82.5-.85-.56-.64.93-1.45.5-.45-.05-.32.7-.82.6-.18-.09-.54-.23-.36-.51a.43.43,0,0,0-.36-.33c-.77.36.36.56.22,1.07a.56.56,0,0,1-.5.28.45.45,0,0,1-.26-.61.65.65,0,0,0-.5-.24c-.09.09-.27.19-.27.37s-.41.18-.64.14a.42.42,0,0,0-.36.27.47.47,0,0,1-.55.33c-.68,0,0-.61-.44-.8-.14-.19-.37,0-.46.09-.32.65.77.28.45.94a.46.46,0,0,1-.5.27.42.42,0,0,1-.27-.56c-.09-.14-.22-.33-.45-.29s-.32.47-.5.65c-.68-.61-.69.56-1.27.46-.28,0-.59-.24-.36-.52a.45.45,0,0,0-.41-.33c-.81.51.45.57.22,1a.39.39,0,0,1-.5.32c-.27,0-.27-.37-.22-.61a.61.61,0,0,0-.5-.24c-.22.05-.32.33-.41.51s-.54,0-.77,0c-.13.23-.27.6-.59.55s-.31-.37-.31-.65-.27-.29-.49-.24-.28.37-.42.55a.84.84,0,0,1-.81-.19c.09-.23.19-.51-.08-.66a.28.28,0,0,0-.41.14c-.37.56.63.33.44.89a.48.48,0,0,1-.5.33.5.5,0,0,1-.22-.61c-.53-.9-.77.41-1.36.26-.13,0-.4-.19-.27-.42,0-.23-.17-.47-.4-.47s-.32.32-.37.56c.14.14.36.14.5.28a.4.4,0,0,1-.14.52c-1,.27,0-.94-.76-.85-.68-.38-.42.74-1.09.55s0-.7-.45-.9c-.67-.33-.41.8-1.09.51-.68.09-.08-.66-.53-.85a.36.36,0,0,0-.46.14c-.37.7.72.29.49.94a.43.43,0,0,1-.45.27c-.45,0-.22-.61-.36-.79-.67-.62-.55.6-1.22.45a.44.44,0,0,1-.27-.61c-.49-.89-.77.37-1.27.22-.27,0-.54-.24-.35-.56a.46.46,0,0,0-.45-.33c-.91.64.63.52.3,1.12a.5.5,0,0,1-.54.33c-.5-.15,0-.66-.36-.9-.71-.47-.5.7-1.09.51-.54-.34-.5.41-.73.65-.18,0-.31-.06-.49-.06a.51.51,0,0,0-.32.42.57.57,0,0,0,.44.42.37.37,0,0,0,.32-.32.36.36,0,0,1,.5-.32.52.52,0,0,1,.27.56c0,.38-.5.28-.73.23a.58.58,0,0,0-.23.51.49.49,0,0,0,.45.33c.32,0,.28-.41.46-.6a.52.52,0,0,1,.59.24.59.59,0,0,1-.1.61c-.18,0-.32,0-.5-.06s-.27.19-.23.33a2,2,0,0,0,.32.33c.36.28.36-.28.5-.46.23,0,.45,0,.58.24s0,.37,0,.56.47.2.7.37a.08.08,0,0,1,0-.06l0-.11c0-.23.09-.56.43-.56s.5.22.5.42a0,0,0,0,0,0,0,0,0,0,0,1,0,0,.49.49,0,0,1,0,.12.46.46,0,0,1-.08.27.3.3,0,0,1-.25.12l-.44-.08a.29.29,0,0,1-.15-.1c0,.19-.22.41,0,.6.66.89.5-.61,1.22-.32.23,0,.27.33.27.52,0,.42-.46.32-.69.27.27.7.59-.13,1.09.24a.4.4,0,0,1,.17.52,1.24,1.24,0,0,0,.63.38s.14-.09.14-.18a.52.52,0,0,1,.5-.33.48.48,0,0,1,.27.52c-.32.65.63.38.85.8,0,.8.59,0,1,.11.32,0,.4.33.54.51.22.71.63-.13,1-.08s.45.47.71.71.55-.37.91-.28.4.43.58.67a.65.65,0,0,0,.59-.23,1.06,1.06,0,0,1,.86.19c0,.24-.14.42-.19.56-.27.14-.54,0-.81,0-.14.18-.27.55-.59.41s-.09-.51-.45-.66c-.54-.38-.59.61-1.13.37-.41,0-.09-.52-.4-.66-.54-.43-.59.51-1.14.32-.45,0-.13-.57-.49-.71-.54-.38-.5.51-1,.32-.41,0-.32-.47-.5-.66-.49-.52-.59.37-1.08.22-.18,0-.41-.28-.32-.47-.26-.84-.86,0-1.26,0s-.18-.56-.45-.8c-.44-.52-.68.27-1,.32-.18,0-.32-.24-.27-.47s.28-.19.5-.14c0-.09.18,0,.14-.18-.31-.57-.59.23-1-.06-.5,0-.22-.66-.58-.8s-.5,0-.59.23c-.64.27-.49-.57-.81-.8-.63,0-.31-.71-.76-.95s-.5.47-.86.28,0-.56-.31-.75c-.59,0-.58-.62-.85-1-.59,0-.45-.65-.9-.84-.13-.19-.27,0-.36.13a.35.35,0,0,1-.5,0,.5.5,0,0,1,.28-.7c-.22-.42-.72.18-.95-.33.1-.57-.22-.71-.62-.9,0-.7-.81-.8-1-1.41s-.45.18-.77,0a.58.58,0,0,1-.31-.66c0-.14-.18-.05-.31-.09a.3.3,0,0,0-.19.32,21.87,21.87,0,0,0,2.05,3.76,31,31,0,0,0,2.19,2.64c.31.42.76.57,1,1a24.51,24.51,0,0,0,11.84,6c.67,0,1.26.48,1.89.2.68.48,1.68.11,2.4.4a1.82,1.82,0,0,1,1.13,0c.59-.23,1.35.06,1.9-.21a21.92,21.92,0,0,0,3.58-.58A27.22,27.22,0,0,0,85,99.2c.5-.32,1.14-.36,1.59-.74a22.1,22.1,0,0,0,6.1-3.87,9.56,9.56,0,0,0,1.65-1.71,23.14,23.14,0,0,0,4-5.67c.28-1.07.92-2,1.12-3.12,0-.28.27-.84-.32-.51ZM70,89.65a.29.29,0,0,1,.38.14v0a.3.3,0,0,1,0,.29.29.29,0,0,1-.22.12.34.34,0,0,1-.12-.06s-.18-.16-.19-.18a.27.27,0,0,1,.19-.33Zm-.86.69a.22.22,0,0,1,.2.16.37.37,0,0,1,0,.18.27.27,0,0,1-.25.09.21.21,0,0,1-.11,0,.23.23,0,0,1-.05-.27.3.3,0,0,1,.22-.12Zm-.85-1.14a.42.42,0,0,1,.4-.09.36.36,0,0,1,.21.29s0,0,0,0,0,0,0,0h0a.5.5,0,0,1,0,.12.31.31,0,0,1-.19.29.22.22,0,0,1-.14,0l-.33-.08s-.08-.2-.08-.16a.38.38,0,0,1,.11-.39ZM67.89,91a.25.25,0,0,1,.27-.11s.1.12.11.16a.35.35,0,0,1,0,.2.28.28,0,0,1-.26.09.19.19,0,0,1-.1-.05.24.24,0,0,1,0-.29Zm-.24-1.23a.27.27,0,0,1,.16.26.13.13,0,0,0,0-.06c.09.18,0,.29-.12.39a.15.15,0,0,1-.09,0,.41.41,0,0,1-.33-.13c0-.07-.05-.15,0-.15a.28.28,0,0,1,.06-.3.32.32,0,0,1,.35,0Zm-.83-1.22a.22.22,0,0,1,.14,0,.55.55,0,0,1,.4.31h0s0,0,0,0h0s0,.37,0,.37a2.52,2.52,0,0,1-.34.27.44.44,0,0,1-.49-.42.56.56,0,0,1,.3-.53Zm-2.93.79a1,1,0,0,1,0-.18.47.47,0,0,1,.31-.42l.45.08.2.32s0,0,0,0a.62.62,0,0,1-.19.47.35.35,0,0,1-.31.08.53.53,0,0,1-.49-.37ZM65,90.73a.43.43,0,0,1-.4-.39c-.07-.3.18-.39.36-.44s.45,0,.45.37h0s0,0,0,0h0l-.14.35-.27.11Zm.67,1-.28,0s-.21-.26-.21-.27a.37.37,0,0,1,.27-.48.44.44,0,0,1,.46.18.15.15,0,0,1,0,.09c0,.14,0,.43-.28.5Zm0-1.77a.26.26,0,0,1-.07-.19.44.44,0,0,1,0-.1c0-.06,0-.13,0-.13s.21-.19.25-.21a.4.4,0,0,1,.37,0,.34.34,0,0,1,.13.27s0,0,0,0,0,0,0,0h0s0,0,0,.08a.39.39,0,0,1-.24.33.43.43,0,0,1-.44-.09ZM66.58,91a.4.4,0,0,1-.35-.28.31.31,0,0,1,.27-.31.28.28,0,0,1,.31.18v0a.37.37,0,0,1-.24.37Zm.23.85a.29.29,0,0,1,.13-.37.34.34,0,0,1,.43.11.1.1,0,0,1,0,.07c0,.25-.09.37-.21.36s-.28-.06-.37-.17Zm.84,1.26-.23-.08s-.13-.1-.13-.15c0-.27.1-.44.28-.5a.31.31,0,0,1,.31,0,.29.29,0,0,1,.13.26v0h0a.14.14,0,0,1,0,.07.37.37,0,0,1-.1.25.27.27,0,0,1-.28.09Zm1.08.62-.17.4-.21.1a.48.48,0,0,1-.41-.09.47.47,0,0,1-.16-.37.5.5,0,0,1,.34-.46.53.53,0,0,1,.61.39s0,0,0,0Zm.12-1.42a.19.19,0,0,1-.15.06.38.38,0,0,1-.15,0,.32.32,0,0,1-.06-.37s.15,0,.21,0,.17.09.18.15h0a.44.44,0,0,1,0,.2Zm.07.93a.34.34,0,0,1,.13-.33.36.36,0,0,1,.35,0,.26.26,0,0,1,.15.25h0c0,.28-.14.37-.27.37a.39.39,0,0,1-.36-.26Zm.93,1.39-.35-.13-.09-.25c0-.28.14-.46.32-.45l.27,0,.21.26h0s0,.07,0,.1c0,.21-.19.33-.38.44Zm.85.9c-.08.09-.18.12-.38.08s-.4-.1-.35-.38a.47.47,0,0,1,.32-.46.45.45,0,0,1,.51.3,0,0,0,0,0,0,0,.49.49,0,0,1-.11.44Zm0-4.39a.35.35,0,0,1-.24-.08.26.26,0,0,1,0-.24c0-.06.2,0,.26,0s.18.13.16.2a.19.19,0,0,1-.16.14Zm.43-1.51c-.17.06-.34,0-.45-.28a.45.45,0,0,1,.28-.5.53.53,0,0,1,.43.14.3.3,0,0,1,.07.18.43.43,0,0,1,0,0,.17.17,0,0,1,0,.07.38.38,0,0,1-.07.21.32.32,0,0,1-.26.13Zm.27.79a.29.29,0,0,1,.16-.35.27.27,0,0,1,.31.16s0,0,0,0l0,0h0a.18.18,0,0,1,0,.11.34.34,0,0,1-.1.2l-.14,0c-.06,0-.18,0-.27-.16Zm1,5.15h0l0,.27a1.58,1.58,0,0,1-.27.2l-.4-.11a1.65,1.65,0,0,0-.09-.22.39.39,0,0,1,.08-.33.35.35,0,0,1,.28-.14.47.47,0,0,1,.45.33h0s0,0,0,0Zm.31-5.5c-.18,0-.36-.11-.36-.28a.32.32,0,0,1,.1-.35.35.35,0,0,1,.39,0,.29.29,0,0,1,.14.26v0a.38.38,0,0,1-.27.36Zm.64.89s-.07.07-.11.05a1.86,1.86,0,0,1-.26-.17.25.25,0,0,1,0-.28.32.32,0,0,1,.35,0,.54.54,0,0,1,.07.13c0,.07.07.19-.1.28Zm1.16-.87-.17.33s-.05,0-.1,0a.29.29,0,0,1-.31-.24.3.3,0,0,1,.21-.39.17.17,0,0,1,.18,0l.18.16s0,0,0,.06Zm.48,1.22a.28.28,0,0,1-.26.09.21.21,0,0,1-.1,0,.23.23,0,0,1,0-.29A.23.23,0,0,1,74.8,91s.1.11.12.15a.46.46,0,0,1,0,.2Zm.29-1.46c-.17.06-.34,0-.44-.27a.39.39,0,0,1,.27-.41l.37.1.08.22a.42.42,0,0,1-.28.36Zm.69.88a.43.43,0,0,1-.2.07.24.24,0,0,1-.21-.12.22.22,0,0,1-.05-.11.24.24,0,0,1,.12-.21.26.26,0,0,1,.27,0,.32.32,0,0,1,.06.07.24.24,0,0,1,0,.3Zm-16.68.62a.27.27,0,0,1-.26.13,1.83,1.83,0,0,1-.31-.18.42.42,0,0,1,.27-.5c.18,0,.36.1.36.27h0a.17.17,0,0,1,0,.07.31.31,0,0,1-.07.21ZM64,95.23l0,0s0,0,0,0-.2.15-.35.14a.34.34,0,0,1-.1-.46.22.22,0,0,1,.23-.14.31.31,0,0,1,.27.2.3.3,0,0,1,0,.1.26.26,0,0,1-.07.16Zm2,1.5s-.09,0-.14,0-.13-.07-.16-.12a.25.25,0,0,1,.1-.33s.15,0,.19,0a.23.23,0,0,1,.07.19l-.06.16Zm1.71.2h0c0,.1,0,.22-.23.31s-.31,0-.3-.18a.28.28,0,0,1,.08-.33.29.29,0,0,1,.34,0,.2.2,0,0,1,.11.2v0Zm1.49.64a1.3,1.3,0,0,1-.23.07.22.22,0,0,1-.26-.14A.42.42,0,0,1,69,97a.31.31,0,0,1,.31.28l-.09.29Zm1.52.37v0s-.1.08-.15.09a.23.23,0,0,1-.18,0,.27.27,0,0,1,0-.27.22.22,0,0,1,.08-.13.19.19,0,0,1,.28.1s0,0,0,0,.09.13,0,.28ZM77,90.13a.35.35,0,0,1-.24.15.33.33,0,0,1-.31-.25.24.24,0,0,1,.09-.26.34.34,0,0,1,.35,0A.23.23,0,0,1,77,90a1.22,1.22,0,0,1,0,.17Zm.42,1.08a.29.29,0,0,1-.16,0,.24.24,0,0,1-.17-.17.28.28,0,0,1,.11-.25.26.26,0,0,1,.23,0,.3.3,0,0,1,.09.26s-.07.09-.1.12Zm.55-1.56s-.15.08-.2.08a.38.38,0,0,1-.4-.16.49.49,0,0,1,0-.12v-.1c0-.11,0-.3.21-.35a.39.39,0,0,1,.36.06.3.3,0,0,1,.13.23v0a.34.34,0,0,1-.07.31l0,.05Zm.59.75-.12.22s-.06,0-.11,0c-.22,0-.26-.1-.26-.19s0-.24.09-.25l.19,0,.19.13c.06,0,.06,0,0,.08Zm1-.42a.32.32,0,0,1-.25.14.2.2,0,0,1-.12-.06S79,89.9,79,89.89a.27.27,0,0,1,.05-.3.34.34,0,0,1,.35-.06.27.27,0,0,1,.17.26.07.07,0,0,0,0-.05.07.07,0,0,1,0,.05h0a.17.17,0,0,1,0,0,.33.33,0,0,1,0,.14Zm1-.55a.29.29,0,0,1-.22.13.32.32,0,0,1-.28,0,.36.36,0,0,1-.15-.28.29.29,0,0,1,.08-.32.42.42,0,0,1,.44-.07.33.33,0,0,1,.19.31h0a.17.17,0,0,1,0,.07.31.31,0,0,1-.07.21Zm.1.75a.43.43,0,0,0,.15.26c-.15,0-.15-.26-.15-.26Zm.22.1c0,.09-.09,0-.09-.1s.14,0,.09.1ZM82,89.79a.64.64,0,0,1-.13.1.23.23,0,0,1-.24,0,.29.29,0,0,1-.13-.22.28.28,0,0,1,.09-.27.31.31,0,0,1,.31,0,.23.23,0,0,1,.14.22.43.43,0,0,0,0,0,.09.09,0,0,0,0,0h0s0,0,0,.06a.23.23,0,0,1,0,.15Zm1-.48s-.12.07-.16,0a.33.33,0,0,1-.29,0,.24.24,0,0,1-.11-.19.33.33,0,0,1,.21-.44c.18-.09.33.06.42.16a.14.14,0,0,1,0,.1c0,.12,0,.29-.11.37Zm.17.72s0,0,0,0v0h0a.21.21,0,0,0,0,.06.38.38,0,0,0,.07.2c-.07,0-.07-.12-.07-.2Zm.25,0h0a.07.07,0,0,1,0,.07h-.06a0,0,0,0,0,0,0s0,0,0,0l0,0v0s0,0,0,.06,0-.07,0-.1l0,0s0,0,0,0v0h0a0,0,0,0,1,0,0c.07,0,.08,0,.08.1h0V90s0,0,0,.07Zm-.06-1.46a.68.68,0,0,1,0-.15c0-.17,0-.44.28-.51a.53.53,0,0,1,.42.17.33.33,0,0,1,.08.23v.07s0,.06,0,.09a.37.37,0,0,1-.29.36.43.43,0,0,1-.48-.26Zm1,1.16a.33.33,0,0,1-.3-.22.23.23,0,0,1,.1-.32.29.29,0,0,1,.37.12.43.43,0,0,1,0,.11.26.26,0,0,1-.19.31Zm1.11-.64c0,.05-.06.05-.11,0A.33.33,0,0,1,85,89a.24.24,0,0,1,0-.29.37.37,0,0,1,.37-.1.24.24,0,0,1,.15.24l-.12.28Zm1-.57c-.1,0-.25.07-.46-.16A.3.3,0,0,1,86,88a.37.37,0,0,1,.4-.07.26.26,0,0,1,.18.25.09.09,0,0,0,0,0,.07.07,0,0,1,0,0h0c0,.14-.07.23-.16.31Zm.85-.49a.43.43,0,0,1-.4-.29c-.07-.29,0-.53.27-.58a.35.35,0,0,1,.36.11.44.44,0,0,1,.13.14.66.66,0,0,1-.08.5.35.35,0,0,1-.28.12Zm.79.76s0,0,0,0l-.16.06a.15.15,0,0,1-.16,0c-.17-.17-.09-.3-.06-.34a.26.26,0,0,1,.32,0,.22.22,0,0,1,.09.3Zm1-.66a.21.21,0,0,1-.07.11l-.24.08c-.06,0-.06,0-.1,0a.28.28,0,0,1-.1-.26c0-.08.06-.14.2-.2a.28.28,0,0,1,.3.17.23.23,0,0,1,0,.14Zm.84-.42a.23.23,0,0,1-.25,0,.24.24,0,0,1-.12-.22.22.22,0,0,1,.12-.27.31.31,0,0,1,.36.13s0,.09,0,.1a.21.21,0,0,1-.12.26Zm1-.6a.29.29,0,0,1-.3,0c-.08,0-.12-.12-.11-.16a.27.27,0,0,1,.07-.32.32.32,0,0,1,.35,0,.26.26,0,0,1,.11.27v0c0,.23-.1.28-.12.26Zm1.12-.65a.21.21,0,0,1-.18.11.35.35,0,0,1-.44-.21s0-.12,0-.14a.39.39,0,0,1,.23-.43A.48.48,0,0,1,92,86a.31.31,0,0,1,.06.19v.06s0,0,0,.07a.28.28,0,0,1-.06.18Zm1.14.38a.24.24,0,0,1,0-.29s0,0,0,.07a.34.34,0,0,0,0,.17s0,0,0,0,0-.13,0-.13,0,0,0,0h0a.2.2,0,0,1,0-.09c.06,0,.08,0,.08,0l0,0s0,0,0,0a0,0,0,0,0,0,0v0a.08.08,0,0,1-.08,0h0s0,0,0,0a0,0,0,0,1,0,0h0a0,0,0,0,0,0,0,.25.25,0,0,0,0,.07s.1.11.15.09a.22.22,0,0,1-.26-.07Zm1.37-.66c0,.07-.09.18-.2.2a.26.26,0,0,1-.23-.1.52.52,0,0,1-.07-.21c0-.08.07-.15.21-.21a.27.27,0,0,1,.3.18.17.17,0,0,1,0,.14Zm.86-.43-.11,0a.2.2,0,0,1-.25-.13.3.3,0,0,1,0-.33.26.26,0,0,1,.26-.1.23.23,0,0,1,.18.21v0a.24.24,0,0,1-.12.29Zm1-.55s-.14,0-.18,0-.27-.1-.19-.23a.28.28,0,0,1,0-.32.32.32,0,0,1,.35-.06.31.31,0,0,1,.2.28.39.39,0,0,1-.21.35Z"/><path d="M70.53,97.76h0a.11.11,0,0,1,0-.05h0s0,0,0,.05Z"/><path d="M63.17,88.47a.4.4,0,0,0,.28-.37.58.58,0,0,0-.5-.38.48.48,0,0,0-.27.47.44.44,0,0,0,.49.28Z"/><path d="M62.51,87.25s.13-.09.09-.23-.27,0-.32.09a.24.24,0,0,0,.23.14Z"/><path d="M66.57,87.52c.05,0,.14-.09.1-.23s0-.09-.09-.09-.19.28,0,.32Z"/><path d="M64.13,87.78c.05-.09.14-.14.14-.28s-.14-.23-.27-.28-.23.23-.23.37.18.24.36.19Z"/><path d="M61.55,87.9c.05-.05.18-.14.18-.23-.09-.29-.45-.29-.45,0a.3.3,0,0,0,.27.19Z"/><path d="M68.15,88.1c.09-.09.32-.18.28-.37s-.41-.38-.5-.1,0,.42.22.47Z"/><path d="M65.6,92.65l0,0h0Z"/><path d="M60.59,88.45a.82.82,0,0,0,.14-.23c-.09-.14-.4-.24-.36,0,0,.09.09.19.22.19Z"/><path d="M62.13,89c.18-.1.36-.24.32-.47a.4.4,0,0,0-.41-.24.42.42,0,0,0-.27.37c.09.15.18.34.36.34Z"/><path d="M61.31,89.39a.31.31,0,0,0,0-.18c0-.1-.14-.24-.27-.19s0,.32.22.37Z"/><path d="M89.57,85.92c.09,0,.13-.14.14-.23s-.14-.19-.23-.19-.27.13-.23.27.18.29.32.15Z"/><path d="M90.48,85.32s.13-.09.14-.19a.27.27,0,0,0-.18-.14c-.28.09-.1.28,0,.33Z"/><path d="M86,86.77c.1,0,.23-.18.19-.32a.27.27,0,0,0-.5.09.44.44,0,0,0,.31.23Z"/><path d="M83.54,86.7s-.09-.09-.13-.09-.18.14,0,.23.09-.09.18-.14Z"/><path d="M94,84.55c.09-.09.19-.13.19-.23-.09-.28-.41-.19-.46.05.05.09.14.28.27.18Z"/><path d="M70.69,87.8s.22-.09.18-.24a.24.24,0,0,0-.22-.14c-.1,0-.19.14-.14.24s.09.14.18.14Z"/><path d="M95.06,83.72c0-.18-.27-.09-.23.1s.09.09.14.09.14-.09.09-.19Z"/><path d="M99.19,82.5a.37.37,0,0,0,.27.19c.13,0,.18-.19.18-.28-.08-.37-.49-.19-.45.09Z"/><path d="M77.52,87.67c-.09,0-.14-.19-.23-.19s-.22.24-.09.33.27,0,.32-.14Z"/><path d="M74.8,88.07a.26.26,0,0,0,.23-.28.27.27,0,0,0-.5,0c0,.1.13.24.27.24Z"/><path d="M79,88.44a.53.53,0,0,0,.23-.47c-.09-.09-.22-.28-.41-.24s-.27.23-.23.42.23.33.41.29Z"/><path d="M72.22,88.32a.31.31,0,0,0,.27-.37c0-.14-.17-.18-.31-.23a.32.32,0,0,0-.23.37c0,.09.18.23.27.23Z"/><path d="M82.45,87.53c.09,0,.27-.13.23-.28s-.18-.28-.32-.19-.22.1-.18.24a.29.29,0,0,0,.27.23Z"/><path d="M79.87,87.65c.09-.05.18-.09.18-.23s-.36-.1-.36.09c0,0,.09.19.18.14Z"/><path d="M76.29,108.58c15.37,0,28-12.3,29.29-28.08L102,81.62c-2,11.61-12.75,20.48-25.71,20.48C65.2,102.1,55.73,95.59,52,86.43H48.09c3.59,12.8,14.86,22.15,28.2,22.15Z"/><path d="M71.58,54.28c-.23.17-1,1-1.22.62s.2-.54.2-.54L67.44,54l-.55,1.63.68.48-.78,4.45,2,1.27,1.77-2-.73-.71s-.51.5-.7,0a6,6,0,0,1,.44-1.46c.21-.57.62-1.66,1-1a7.24,7.24,0,0,1,.61,1.56l1.16-1.43-.21-2.1s-.34-.25-.54-.42Z"/><path d="M98.33,53.66c-.24.15-1.08.85-1.27.49s.25-.5.25-.5L94.63,53l-.71,1.54.63.52-1.21,4.26,1.84,1.43L97.13,59l-.67-.76s-.54.43-.69,0a3.31,3.31,0,0,1,.37-1.39c.26-.54.67-1.32,1-.89a4.54,4.54,0,0,1,.45,1.58l1.29-1.28V54.12s-.31-.26-.5-.46Z"/><path d="M64.52,50.23A1.35,1.35,0,1,0,66,51.58a1.39,1.39,0,0,0-1.44-1.35Zm-.2,9.33c-.27-.27,1-4.25,1-4.25l-3.26-.89L61.67,56l.67.68-.4,4.68s1.83,1.09,1.9,1.09,1.63-2.38,1.63-2.38l-.61-.68s-.27.45-.54.18Z"/><path d="M91.75,49.07a1.35,1.35,0,1,0,1.44,1.35,1.4,1.4,0,0,0-1.44-1.35Zm-.2,9.17c-.27-.26,1-4.12,1-4.12l-3-.92-.41,1.52.68.65-.58,4.53S91,61,91.07,61s1.63-2.3,1.63-2.3l-.61-.66s-.27.43-.54.17Z"/><path d="M82.78,49.61,79.57,55.7l-.3-.26a44.53,44.53,0,0,1,.18-5.21l-3.21,1.94L76,54.57s-.23.28-.55.77c0-.81-.15-6.48-.15-6.48l-3,2.09.07,1.3.67.07c.33,2.87.59,6.6.67,7.68a12.19,12.19,0,0,0,2,1c0-.07,1.62-3.7,1.62-3.7l.6,3.81,2.2-1.09s3.29-7.75,3.91-8.69a6.31,6.31,0,0,1,1.19-.18l.24-1.85-2.65.27Z"/><path d="M86.88,58a27.19,27.19,0,0,1,1.32-4.36l-2.84-.57-1.31,1.5.68.44a2.77,2.77,0,0,1,.35-.28c.35-.2.48.25.23.65a16.12,16.12,0,0,0-3.87,3.31l1,2.34,2.7-.86,1.26,1,1.63-2-.49-.9c-.55.43-.76,0-.67-.31Zm-1.95.77a16.2,16.2,0,0,1-1.57.6c-.16,0-.38.11-.38,0,0-.65,2.21-2.08,2.21-2.08l-.26,1.53Z"/><path d="M59.8,61.68A98.12,98.12,0,0,1,60,51.58L57,52.46l-3.46,9.16-.88-.13L52,63l2.62,1.72L56,61.15l1.46.34c.14,1.42.44,3,.44,3l3-1.5V61.55l-1.05.13Zm-2.55-2.16-.81-.2,1-2.84-.21,3Z"/><path class="cls-1" d="M58.32,97.59s0,0,0,0l-.3-.31a0,0,0,0,0-.06,0l-.9.49-.07,0,.05-.07.53-.86a.05.05,0,0,0,0-.06l-.32-.33a.06.06,0,0,0-.06,0l-.93.55,0-.06.52-.88s0,0,0,0,0,0,0,0l-.32-.33s0,0,0,0l0,0-.82,1.61s0,0,0,0l.28.3h0l.9-.51.11-.07-.07.11-.55.87s0,0,0,0,0,0,0,0l.28.3s0,0,0,0l1.64-.77,0,0ZM60.7,100l0,0,.18-.24s0,0,0-.06l-1.33-1a0,0,0,0,0-.07,0l-.18.24a0,0,0,0,0,0,0h0s0,0,0,0l.45.35L59,100.38s0,0,0,0h0a0,0,0,0,0,0,0l.35.27s0,0,.06,0l.84-1.08.45.36Zm-1.6-1.77-.32-.29h0l0,0-1.14,1.28s0,0,0,.06l.32.29h0l0,0,1.14-1.28s0,0,0-.06Zm35.09,1.35a0,0,0,0,0-.07,0l-.77.61-.85-1.06s0,0,0,0h0l-.34.27a0,0,0,0,0,0,.06l1.07,1.34s0,0,.06,0l1.15-.91a0,0,0,0,0,0,0s0,0,0,0l-.18-.23Zm-2,.83a.86.86,0,0,0-.69-.43,1.29,1.29,0,0,0-1.17.79.85.85,0,0,0,.14.8.87.87,0,0,0,.68.43,1.29,1.29,0,0,0,1.18-.79.78.78,0,0,0,0-.26,1,1,0,0,0-.18-.54Zm3.54-2.29a.06.06,0,0,0-.06,0l-.79.73a3,3,0,0,1-.24-.26l.68-.63s0,0,0,0a.05.05,0,0,0,0,0l-.2-.21s0,0,0,0h0s-.62.59-.69.64l-.18-.2.75-.69a.05.05,0,0,0,0,0h0s0,0,0,0l-.21-.22a.06.06,0,0,0-.07,0l-1.1,1a0,0,0,0,0,0,.06l1.17,1.25s0,0,.06,0L96,98.4a.05.05,0,0,0,0-.06l-.21-.23Zm-3.86,3a.53.53,0,0,1-.23.33.51.51,0,0,1-.4.09.5.5,0,0,1-.34-.26.6.6,0,0,1-.12-.42.55.55,0,0,1,.24-.33.48.48,0,0,1,.39-.09.61.61,0,0,1,.35.26.64.64,0,0,1,.12.35s0,0,0,.07Zm-29.45-.41h0a0,0,0,0,0,0,0l-.33.51c-.07,0-.55-.35-.61-.4l.33-.5s0,0,0,0a.08.08,0,0,0,0,0l-.36-.23h0l0,0-.93,1.44s0,0,0,0,0,0,0,0l.36.24a0,0,0,0,0,.06,0l.39-.6.61.39-.39.6a0,0,0,0,0,0,0l0,0,.36.23h0l0,0,.93-1.44s0,0,0-.06l-.36-.24Zm29.91.5Zm-2.4.64-.39.06-.35.12-.27.07a.11.11,0,0,1-.11,0,.14.14,0,0,1,0-.14l.2-.17.23-.08a.2.2,0,0,1,.21.09,0,0,0,0,0,.06,0l.36-.2s0,0,0,0a0,0,0,0,0,0,0,.53.53,0,0,0-.45-.27,1.22,1.22,0,0,0-.59.16,1,1,0,0,0-.47.44.51.51,0,0,0,0,.48.44.44,0,0,0,.41.24l.47-.1.22-.08.28-.06a.09.09,0,0,1,.1,0s0,.11-.06.21l-.2.14a.51.51,0,0,1-.34.09l-.13-.1a.07.07,0,0,0-.06,0l-.36.2a0,0,0,0,0,0,.06.5.5,0,0,0,.45.27,1.14,1.14,0,0,0,.66-.18,1.16,1.16,0,0,0,.49-.46.51.51,0,0,0,0-.48.43.43,0,0,0-.37-.24Zm7.25-5.56a.46.46,0,0,0-.43-.11l-.35.18-.29.23-.23.15a.16.16,0,0,1-.13,0,.14.14,0,0,1,0-.14l.14-.22.19-.15a.19.19,0,0,1,.23,0,0,0,0,0,0,.06,0l.28-.3s0,0,0,0l0,0a.53.53,0,0,0-.51-.11,1.18,1.18,0,0,0-.51.34,1,1,0,0,0-.31.57.5.5,0,0,0,.16.44.42.42,0,0,0,.46.11l.42-.25.18-.14.24-.15c.07,0,.09,0,.11,0s.08.09,0,.22l-.15.19a.51.51,0,0,1-.3.19l-.15,0a.06.06,0,0,0-.06,0l-.28.31a0,0,0,0,0,0,0v0a.56.56,0,0,0,.51.13,1.22,1.22,0,0,0,.57-.39,1.06,1.06,0,0,0,.32-.59.52.52,0,0,0-.15-.46Z"/><path class="cls-1" d="M64,104.32c-.12,0-.29,0,.28-1.5.75-1.93,1-1.75,1-1.72l1.24.51c.84.35.85.73.75,1-.17.43-.81.45-.86.57s.6.77.33,1.44c-.14.39-.57.64-1.35.32l-1.44-.6Zm1.21-1.1c-.16,0-.24,0-.29.13-.23.59-.08.74.31.9s.74.18.85-.13a1.06,1.06,0,0,0-.28-.89.62.62,0,0,0-.23,0Zm.78-.53c.17,0,.45-.14.51-.3s-.11-.31-.29-.39c-.47-.2-.76-.12-1,.49,0,.08-.08.18,0,.23a.88.88,0,0,0,.29,0l.43,0Zm1.62,1.46a1.26,1.26,0,0,1,1.59-1,1.32,1.32,0,0,1,.9,1.7,1.27,1.27,0,0,1-1.6,1,1.32,1.32,0,0,1-.89-1.71Zm1.9.42a.72.72,0,0,0-.43-.95c-.49-.14-.75.28-.83.6s-.08.83.42,1,.75-.29.84-.61Zm3.53-.59c.21,0,.09.9,0,1.3-.22,1.53-.35,1.43-.71,1.38-.54-.09-.1-.26-.38-.3a1,1,0,0,0-.28.1.78.78,0,0,1-.39,0c-.42-.06-.78-.34-.61-1.53,0-.07.24-1.31.45-1.28l.47.07c.06,0,.2,0,.19.1a3.55,3.55,0,0,0-.42,1.22c0,.24-.13.87.3.94.17,0,.56,0,.7-.85a8,8,0,0,0,0-1.24s.12,0,.18,0l.47.08Zm2.38,2.85c-.07,0-.18,0-.18-.08a4.18,4.18,0,0,0,.32-1.44c0-.3,0-.68-.35-.69-.2,0-.6.08-.64.92a7.34,7.34,0,0,0,.11,1.2c0,.06-.09.05-.14.05l-.44,0c-.19,0-.27.07-.23-1,.07-1.91.25-1.78.64-1.77.18,0,.37,0,.37.09a1.16,1.16,0,0,0-.06.15.09.09,0,0,0,.08.09,2.28,2.28,0,0,1,.66-.15c.14,0,.74,0,.7,1.15-.07,1.65-.22,1.56-.4,1.55Zm1.5-1.19A1.46,1.46,0,0,1,78.31,104c.45,0,.78.15.8.39s-.09.37-.28.39-.12-.31-.53-.28-.69.62-.66,1a.68.68,0,0,0,.77.7.88.88,0,0,0,.7-.46s.08.07.09.24c0,.5-.35.84-1,.88A1.17,1.17,0,0,1,77,105.64Zm2.66-2.33c0-.18.14-.32.35-.35s.4.05.43.23-.15.3-.35.33-.41,0-.43-.21Zm1,3.18c.12,0,.28,0,.26-.15a6.85,6.85,0,0,1-.45-1.71,7.32,7.32,0,0,1,0-.77s0-.06-.23,0l-.28,0c-.16,0-.27-.1-.07,1.32s.22,1.38.47,1.34l.34-.05Zm2.65-.55c-.06,0-.17,0-.19,0a4.19,4.19,0,0,0-.06-1.48c-.07-.29-.18-.65-.52-.57-.19,0-.56.25-.37,1.06a8.41,8.41,0,0,0,.4,1.13c0,.06-.07.08-.12.09l-.43.1c-.18,0-.24.13-.48-1-.42-1.85-.22-1.78.16-1.87.18-.05.36-.11.38,0s0,.1,0,.16a.07.07,0,0,0,.09.06,2.4,2.4,0,0,1,.6-.32c.14,0,.72-.16,1,.92.36,1.61.18,1.56,0,1.6l-.43.11Zm4-1.6a1.18,1.18,0,0,0-1.63-.35c-.22.12-.32.27-.43.3a.14.14,0,0,1-.13-.09c0-.11.24-.37.51-.47a1,1,0,0,0,.75-1.23c-.15-.43-.42-.41-.47-.53s.43-.26.39-.37a.72.72,0,0,0-.52-.2c-.19.07-.2.48-.42.56A1.92,1.92,0,0,0,85,102c-.65.24-.94.7-.76,1.22s.55.47.59.57-.5.36-.34.82a.47.47,0,0,0,.45.31.8.8,0,0,0,.09.6c.28.47,1,.51,1.61.21a1.21,1.21,0,0,0,.68-.67,1,1,0,0,0-.06-.76ZM84.78,103a.46.46,0,0,1,.33-.58.43.43,0,0,1,.61.23.46.46,0,0,1-.33.58.44.44,0,0,1-.61-.23Zm1.54,2.32a.63.63,0,0,1-.86-.17c-.15-.27,0-.58.34-.76a.6.6,0,0,1,.85.16c.16.3,0,.6-.33.77Z"/><path d="M28.31,47.61V55.9c-.06,2.21-3.61,1.82-3.61,1.82V45.8s3.55-.39,3.61,1.81ZM86,79.68c-3.31.53-6.62.9-9.9,1.12l.12,1c3.29-.22,6.6-.6,9.9-1.12l-.12-1Zm.33,2.89.11.91c-1.64.38-7.45,1-9.87,1.16l-.11-.93c3.28-.23,6.58-.61,9.87-1.14Zm0-.44c-3.29.52-6.6.91-9.88,1.13l-.12-1c3.28-.22,6.59-.6,9.89-1.13l.11,1Zm-.33-2.89c-3.31.52-6.62.9-9.91,1.11l-.12-1s1.8-.35,1.69-2c0-.23-.36-2.73-.41-3.13-.19-1.19-1.59-.81-1.59-.81S75,69,75.06,69c.37,0,1.43-.16,1.29-1.33s-.45-3.41-.45-3.41l6.21-.73s.27,2.39.39,3.42,1.2,1,1.58.94c0,0,.59,4.5.59,4.5s-1.45,0-1.35,1.21c.05.4.34,2.9.37,3.14.28,1.57,2.1,1.43,2.1,1.43l.13,1.1ZM31.53,62.09H15.33V57.58s2.72,0,2.84-2.27v-7.1c-.12-2.27-2.84-2.27-2.84-2.27V41.43h16.2a3.34,3.34,0,0,1,3.33,3.38v13.9a3.34,3.34,0,0,1-3.33,3.38ZM28.31,47.61c-.06-2.2-3.61-1.81-3.61-1.81V57.72s3.55.39,3.61-1.82V47.61Zm7.53,10.86v3.42h5.47V58.56a.76.76,0,0,1-.73-.79v-2c0-1.59,1.64-1.64,1.64.09v.6h3.07V55c0-3.63-3.2-3.89-4.94-2.06V51.81h-4.5v2.71a.77.77,0,0,1,.73.8v2.36a.76.76,0,0,1-.73.79Zm6.68,3.42h2.93V58.58H42.52v3.31ZM24.7,45.8V57.72s3.55.39,3.61-1.82V47.61c-.06-2.2-3.61-1.81-3.61-1.81ZM57.32,81.07l-15.46.07a8.92,8.92,0,0,0,.55,1l14.91-.07v-1Zm0,2.93v1h-7V84l7,0Zm0-.45-7,0v-.34a1.91,1.91,0,0,1-.24.34l-6.38,0a5.79,5.79,0,0,1-1-1l14.6-.07v1Zm-13,.51,5.27,0a5,5,0,0,1-4.53.42,7.37,7.37,0,0,1-.74-.39ZM56.18,78.4V69.22l-5.87,0V71c-.66-1.32-3.35-2-5.26-1.21-2.87,1.27-4,4.39-4,7.34a10.13,10.13,0,0,0,.6,3.58l15.63-.07v-1a1.2,1.2,0,0,1-1.14-1.24ZM49,79.63c-1,0-1.75-1.44-1.75-3.22s.78-3.23,1.75-3.23,1.75,1.45,1.75,3.23S50,79.63,49,79.63Zm-9.1,0S37,79.63,37,77.8s-.06-6,0-7.38C37,68,39.8,68.11,39.8,68.11V63.76H31.42L27.55,70.9l-3.87-7.14H15.29v4.35s2.86-.1,2.93,2.31c0,1.39,0,5.54,0,7.38s-3.05,1.78-3.05,1.78v1.23l10.67,0V79.69s-1.43,0-1.43-1.26V75.85l3.16,4,3.15-4v2.58c0,1.22-1.42,1.26-1.42,1.26v1.06l10.66,0V79.58ZM15.15,84.19l10.67,0v1H15.15v-.94Zm0-2.93,10.67-.05v1l-10.67,0v-1Zm0,1.46,10.67,0v1l-10.67,0v-1Zm24.79-.56-10.66,0v-1l10.66,0v1Zm0,1.92v1H29.28v-1l10.67,0Zm0-.45-10.67.05v-1l10.66,0v1ZM67.85,81l-8.53,0v1l8.52,0V81Zm0,2.48-8.53,0v-1l8.52,0v1Zm0,.45v1H59.33V84l8.53,0Zm0-3.38-8.53,0v-1a1.19,1.19,0,0,0,1.14-1.23V74.69a1.19,1.19,0,0,0-1.14-1.24V69.21h7V71c2.72-2.86,7.72-2.45,7.69,3.21v2.26H69.27v-.94c0-2.69-2.55-2.62-2.56-.14v3.17a1.19,1.19,0,0,0,1.14,1.24v.82Zm66.87-18.73-.06-.16a116.94,116.94,0,0,1-12.15,6.6l.45.85a116.82,116.82,0,0,0,11.89-6.51,3.63,3.63,0,0,0-.13-.78Zm0,2.35a116.18,116.18,0,0,1-11.1,6.1l-.41-.77a118.13,118.13,0,0,0,11.69-6.38v.08a4.44,4.44,0,0,1-.18,1Zm-7.83,1.44q-2.22,1.16-4.54,2.26l-.54-1s3.68-1.93,4.33-2.29a4.78,4.78,0,0,0,.6.93.79.79,0,0,0,.15.12Zm7.65-4.37q-2.62,1.65-5.51,3.22a.94.94,0,0,0-.12-.43c-.41-.75-.91-.95-4,.08-.9.3-3.75,1-5.59-.9a6,6,0,0,1-1-1.53c-1.26-2.8,1-5.14,2.51-6,.68-.4,7.33-3.82,7.33-3.82l2.31,4.31-4.66,2.45c-.13-.14-.28-.56-.58-.66-.68-.23-2,.53-2,1.16a1,1,0,0,0,.24.61c.26.21.8.36,2.51-.29,6.16-2.32,7.83.17,8.55,1.83Zm-.06,3.6a1.17,1.17,0,0,1-.05.11,6.26,6.26,0,0,1-2.75,2.73c-.69.38-5.91,3.15-7.37,3.9l-.49-.91a116.66,116.66,0,0,0,10.66-5.83ZM105.17,77.6c2.74-.87,5.43-1.82,8.06-2.83l-.33-.86c-2.64,1-5.33,1.94-8.08,2.8l.35.89Zm16.2-6.26c-2.21,1-4.48,2-6.81,2.91l-.34-.85c2.34-.92,4.62-1.89,6.83-2.89l.32.83Zm.16.41.32.82c-1.17.61-5.63,2.47-6.8,3l-.33-.85q3.5-1.4,6.81-2.92Zm-17.24,3.62c2.75-.86,5.46-1.8,8.1-2.8l.35.92c-2.63,1-5.33,1.94-8.08,2.8l-.37-.92Zm16.09-6.59q-3.33,1.5-6.84,2.88l-2.06-5.26c-.84-2.22-3.3-1.43-2.39.92.38,1,.8,2,1.15,2.94a1.27,1.27,0,0,0,1.55.73l.44,1.17c-2.64,1-5.35,1.94-8.1,2.79l-.36-.9a1.47,1.47,0,0,0,.6-1.66c-.3-.83-.92-2.41-1.27-3.3-.51-1.3-1.56-.88-1.56-.88L100,64.26l6.53-2.53s.63,1.57.63,1.62a6.85,6.85,0,0,1,4.13-3.23c4-.95,5,1.89,7.15,6.89a1,1,0,0,0,1.49.64l.44,1.13Zm.51,1.31q-3.31,1.51-6.83,2.89l-.36-.91q3.51-1.36,6.84-2.88l.35.9ZM105.33,78c2.74-.87,5.43-1.81,8-2.82l.32.83c-.74.3-7.27,2.68-8,2.92l-.37-.93Zm-11.17-.37q-3.09.7-6.21,1.26c0-.08-.06-.17-.08-.24a51.33,51.33,0,0,1-1.34-5.37c-1.34-8,12.09-9.76,13.49-4.35L101.13,73l-7.91,2,.54,2.08h0a1,1,0,0,0,.36.52ZM92.75,73.1l2.55-.64S95,71,94.81,70.58c-.47-1.35-2.78-.74-2.52.61.1.52.46,1.91.46,1.91Zm8.71,1.55L96.18,76l.28,1.13q2.66-.66,5.26-1.42l-.26-1Zm.73,2.85a132.85,132.85,0,0,1-13.28,3.16,3.47,3.47,0,0,0,1,.81l0,0c4.23-.81,8.43-1.84,12.54-3l-.24-.94Zm-.36-1.39a130.11,130.11,0,0,1-13.72,3.21h0a5.92,5.92,0,0,0,.49.92h0a131.16,131.16,0,0,0,13.47-3.19l-.25-1ZM90.5,81.83a4.42,4.42,0,0,0,2.87.33c2.11-.37,7.18-1.66,9.42-2.32l-.25-1c-4,1.16-8,2.16-12,3Z"/><path class="cls-1" d="M120.54,69.19q-3.33,1.52-6.84,2.88l-.16-.41q3.51-1.38,6.84-2.88l.16.41ZM15.15,81.26l10.67-.05v-.45l-10.67,0v.45Zm42.17-.64-15.63.07c.05.15.11.3.17.45l15.46-.07v-.45Zm77.31-19-.07-.18-.06-.15q-2.62,1.65-5.51,3.22a.46.46,0,0,1-.09.35l0,0a3.73,3.73,0,0,1-1.57.85.71.71,0,0,1-.39,0l-.07,0q-2.22,1.16-4.54,2.26l.2.39a116.94,116.94,0,0,0,12.15-6.6l0-.09ZM39.94,80.7l-10.66,0v.44l10.66,0V80.7Zm64.35-5.33c2.75-.86,5.46-1.8,8.1-2.8l-.16-.41c-2.64,1-5.35,1.94-8.1,2.79l.16.42Zm-2.57.3q-2.61.77-5.26,1.42l.11.41-1.43.37a1.4,1.4,0,0,1-1-.23q-3.09.7-6.21,1.26h0l.16.42a130.11,130.11,0,0,0,13.72-3.21l-.11-.44Zm-33.87,4.9-8.53,0v.45l8.53,0v-.45Zm18.07-1.33c-3.31.52-6.62.9-9.91,1.11l.06.45c3.28-.22,6.59-.59,9.9-1.12l0-.44Zm-46,2.92-10.66,0v.45l10.66,0v-.45Zm62.14-5.09a131.16,131.16,0,0,1-13.47,3.19c.09.13.18.26.29.39h0a132.85,132.85,0,0,0,13.28-3.16l-.11-.43Zm-16,3.62c-3.3.52-6.61.9-9.9,1.12l.06.45c3.28-.22,6.59-.6,9.89-1.13l0-.44ZM67.85,82l-8.52,0v.44l8.52,0V82Zm67-19.35s0,0,0-.07A116.82,116.82,0,0,1,123,69.13l.21.39a118.13,118.13,0,0,0,11.69-6.38c0-.15,0-.31,0-.45Zm-119.71,20,10.67,0v-.45l-10.67,0v.44ZM120.89,70.09q-3.31,1.51-6.83,2.89l.16.42c2.34-.92,4.62-1.89,6.83-2.89l-.16-.42Zm-63.57,12-14.91.07c.1.16.2.3.31.45l14.6-.07v-.45Zm47.5-5.37c2.75-.86,5.44-1.8,8.08-2.8l-.16-.42c-2.63,1-5.33,1.94-8.08,2.8l.16.42ZM15.15,84.19l10.67,0v-.45l-10.67,0v.45ZM134.66,64.28s0-.06,0-.09a116.18,116.18,0,0,1-11.1,6.1l.2.4a116.66,116.66,0,0,0,10.66-5.83,4.58,4.58,0,0,0,.22-.58ZM105.33,78c2.74-.87,5.43-1.81,8-2.82l-.15-.42c-2.63,1-5.32,2-8.06,2.83l.16.41Zm-2.9.43c-4.11,1.21-8.31,2.24-12.54,3l.14.08.44.24,0,0c4.06-.8,8.09-1.8,12-3l-.11-.43ZM86.25,82.13c-3.29.52-6.6.91-9.88,1.13l.06.45c3.28-.23,6.58-.61,9.87-1.14l0-.44ZM40,83.63l-10.67.05v.44l10.67,0v-.45Zm27.91-.13-8.53,0V84l8.53,0V83.5Zm53.51-12.16c-2.21,1-4.48,2-6.81,2.91l.16.42q3.5-1.4,6.81-2.92l-.16-.41ZM44.31,84.06l5.27,0a2.12,2.12,0,0,0,.49-.45l-6.38,0a5.79,5.79,0,0,0,.62.45Zm13-.51-7,0V84l7,0v-.45Z"/></svg>