<?xml version="1.0" encoding="UTF-8"?><svg id="a" xmlns="http://www.w3.org/2000/svg" width="150" height="150" viewBox="0 0 150 150"><path d="M41.4,68.94c-.22-2.45-1.15-5.14-3.25-6.59-.75-.52-1.81-1.1-2.73-1.15-.79-.04-1.63,.24-2.41,.31-.65,.06-1.32,.39-1.45,1.2-.09,.63,.25,1.69,.32,2.33,.2,1.76,.48,2.86,.42,4.61-.14,3.75-.1,7.58-.07,10.96,0,1.02,.06,2.05,.12,3.05,.11,2.13,.06,4.33-.23,6.44-.11,.81-.53,1.65,.19,2.23,1.04,.84,3.4,.87,4.72,1.16,1.47,.33,3.27,.91,3.99-.88,.54-1.35,.66-2.95,.87-4.36,.13-.88,.27-1.7,.32-2.6,.14-2.22,.1-4.52,.12-6.75,.03-2.2-.18-4.58-.62-7.26-.15-.89-.23-1.8-.31-2.69Z"/><path d="M99.23,81.1c-.31-1.17-.74-2.24-1.6-3.11-.78-.78-1.64-.84-2.67-.97-.95-.11-4.42-1.46-4.35,.28v.03c.18,3.85,.18,7.61,.17,11.46v.9c0,3.51-.02,7.14,.46,10.67,.05,.34,.26,.63,.59,.78,.21,.1,.5,.14,.82,.14,1.4,0,3.53-.79,3.82-.98,1.22-.77,2.23-2.04,3-3.78,1.1-2.5,1.48-5.29,1.38-8-.09-2.61-.96-4.92-1.63-7.42Z"/><path d="M140.43,65.4c-.22-5.7,.95-10.93-3.85-15.24-2.77-2.49-6.34-3.92-9.86-5.25-16.89-6.37-35.91-12.41-54.19-12-18.05,.4-38.61,7.66-55.13,14.77-1.44,.62-2.89,1.25-4.09,2.24-6.03,4.97-3.69,14.1-3.69,20.68h0c0,6.07-.06,12.12-.06,18.18,0,9.69,.21,11.59,9.03,15.67,7.63,3.53,18.47,6.66,26.66,8.83,19.35,5.13,40.35,4.97,59.81,.5,9.9-2.27,18.92-5.95,27.95-10.43,2.83-1.4,4.66-2.54,5.85-3.71,2.93-2.87,1.94-5.84,2.24-13.06,.29-7.07-.39-14.13-.67-21.19Zm-67.63-25.11c.22-.54,2.64-.54,3.02-.58,1.11-.11,4.73,.28,5.57,.37,.8,.09,3.7,.37,4.11,.77,.29,.28,.11,1.04,.05,1.42-.09,.59,.19,.83-.22,1.32-.54,.65-2.16,.23-2.92,.22-1.99-.02-4.48-.43-4.54,.2-.03,.35,.28,2.52,.21,3.3-.07,.79-.01,.88,.87,.94,1.4,.1,2.81,.08,4.22,.17,.88,.06,1.84,.1,2.62,.36,.32,.11,.23,1.4,.16,1.93-.11,.79,.09,1.01-.69,1.04-1.73,.07-3.52-.09-5.23,.03-1.07,.08-1.73,.06-1.66,.77,.09,.9,.07,3.16,.43,3.56,.84,.28,4.53-.09,5.59-.2,.98-.1,1.94-.26,2.96-.19,.89,.06,1.01-.03,1.11,.85,.06,.55,.28,1.52,.25,2.08-.08,1.15-2.58,.63-3.36,.71-1.28,.13-2.65,.08-3.97,.2-1.57,.14-3.15,.24-4.73,.27-.46,0-2.38,.25-2.79,.19-.23-.03-.47-.25-.59-.43-.14-.2-.25-1.24-.13-1.64,.42-1.41,1.12-.91,1.34-2.47,.18-1.25-.22-3.92-.14-5.17,.1-1.55,.19-4.45-.27-5.95-.32-1.06-2.24-1.7-1.27-4.03Zm-23.57,47.21c-.06,.66-.13,1.34-.16,2-.18,4.12-2.09,8.3-5.75,10.43-1.78,1.03-3.13,1.68-5.27,1.53-1.67-.12-3.4-.67-5.03-1.06-2.03-.49-3.92-1.12-5.9-1.75-.88-.28-1.78-.5-2.67-.79-.23-.07-.44-.15-.65-.23-1.66-.63-3.48-.84-2.84-2.76,.42-1.27,1.5-2.47,2.57-2.79,.67-.2,1.32-.39,1.89-.82,.91-.69,.71-1.3,.76-2.36,.04-.8-.03-1.61-.08-2.41-.04-.54-.08-1.1-.08-1.64-.06-3.87-.07-7.68-.08-10.9,0-.51,0-1.02,0-1.53-.01-2.18,0-4.3,.27-6.45,.34-2.66-3.27-4.92-3.88-1.75-.27,1.39,1.38,2.98-1.19,3.41-2.99,.51-3.1-4.03-2.7-5.91,.74-3.55,4.3-4.75,7.53-5.37,1.54-.3,2.16-.69,3.71-1.01,.99-.2,2.8-.76,3.76-.95,1.05-.21,1.9-.23,2.97-.24,3.86-.03,7.21,1.92,9.52,4.96,1.17,1.55,1.83,3.79,2.05,5.72,.27,2.38,.5,4.77,.53,7.17,0,.76,.13,1.44,.24,2.11,.11,.65,.22,1.26,.22,1.92,0,1.05,.03,2.11,.05,3.14,.05,2.72,.5,5.64,.24,8.34Zm1.4-38.57c-2.44,.68-2.64-2.71-1.67-3.99,1.1-1.45,2.69-2.22,4.51-2.51,1.4-.22,3.4-.61,3.66,1.13,.15,1.05,.34,2.1,.37,3.16,.02,.56,.01,2.11,.59,2.49,.9,.6,4.05,.07,5.05-.1,.48-.08,.72-.48,.79-1.97,.04-.87,.06-1.8-.08-2.66-.13-.8-.09-1.53-.13-2.34-.02-.28-.14-.61-.06-.91,.21-.78,1.24-.7,1.99-.73,.44-.02,.87-.06,1.29-.11,.53-.06,.57-.17,.82,.26,.34,.57-.07,1.29-.03,1.89,.05,.71,.07,1.42,.07,2.16,0,1.31,.17,2.62,.17,3.93,0,2.49-.1,4.17-.18,7.06-.02,.77-.2,1.95-.25,2.71-.02,.4,.16,1.08-.07,1.43-.35,.55-3.33,.6-3.94,.19-.72-.48,.12-3.83,0-5.32-.07-.89,.2-1.99-.36-1.99-.98,0-4.36-.14-5.04,.33-.55,.38-.39,2.38-.42,2.94-.07,1.42,.28,4.23-.28,4.31-1.35,.19-3.55,.86-3.65-.71-.2-3.2,.03-6.38,.2-9.6,.06-1.06,.46-5.47-1.88-4.27-1.11,.57-.23,.83-.13,1.57,.09,.65-.72,1.47-1.35,1.64Zm1.45,17.76c-.53-.98-.57-2.79,.36-3.04,9.77-1.69,18.43,.05,28.32-.92,2.92-.29,14.25,.84,17.38-1.97,1.02-.91,.64-2.49,.72-4.5,.04-1.06-2.24-4.52-3.37-6.18-1.02-1.49-2.34-3.17-3.69-4.42-1.04-.96-3.05-2.09-1.74-3.65,.62-.74,2.38-1.66,3.27-.69,1.21,1.32,2.81,2.41,3.74,3.81,.72,1.08,1.7,2.13,2.23,3.32,.31,.69,1.41,1.64,1.74,1.79,1.11,.48,2.65-5.96,4.57-6.51,1.12-.32,3.42,.81,3.6,1.45,.34,1.21-2.21,4.81-3.27,6.27-1.33,1.82-2.41,3.21-2.49,4.1-.33,3.64,.83,8.49-3.69,10.2-2.7,1.02-4.97,.25-7.74,.35-2.63,.1-5.26,.22-7.94,.16-6.47-.14-12.94-.12-19.4,.1-3.61,.12-6.76,.91-9.81,.51-.84-.11-2.49,.34-2.77-.18Zm24.9,8.86c-.17,3.52-.45,7.08-.57,10.64-.11,3.3-.07,6.6-.16,9.9-.04,1.57,0,3.18-.16,4.74-.15,1.47-.08,3.04-.89,4.34-1.2,1.95-3.09,2.69-5.23,2.84-1.29,.09-2,.49-3.31,.39-.14-.01-1.28-.05-1.42-.07-1.3-.21-3.02-.81-4.27-1.29-3.38-1.31-4.71-5.21-5.12-6.83-.91-3.55-.82-7.45-.75-10.89,.06-2.68,.34-5.39,.21-8.08-.12-2.66-.44-5.16-.87-7.75-.34-1.99,.38-2.98,2.43-3.27,.9-.13,2.49-.15,3.21,.48,.6,.52,.75,1.64,.83,2.4,.11,1.11,.42,2.2,.46,3.32,.1,2.61,.14,5.23,.08,7.86-.02,.87-.04,1.7-.04,2.52,0,.35,0,.77-.01,1.23-.05,3.96-.5,10.6,1.85,12.98,1.88,1.9,5.35,1,6.21-1.43,.54-1.52,.54-3.2,.73-4.79,.32-2.76,.18-5.46,.31-8.24,.16-3.51,.23-7.09,.01-10.6-.08-1.23-.6-3.27-.06-4.42,.32-.67,1.47-1.28,2.17-1.46,3.49-.91,4.49,2.81,4.36,5.49Zm25.82,28.11c-1.51,1.33-3.31,2.25-5.22,2.87-1.91,.62-4.15,1.29-6.15,1.5-.4,.04-.76,.12-1.11,.21-.68,.18-1.71,.23-2.42,.41-1.32,.34-2.55,.14-3.86-.09-1.16-.2-2.41-.2-2.34-1.46,.09-1.57,.75-3.15,1.93-4.21,.53-.48,1.01-.63,1.2-1.34,.2-.74-.06-1.65-.12-2.4-.03-.33-.18-7.14-.18-7.14-.01-2.68,.03-5.37,.16-8.05,.06-1.19,.09-2.4,.24-3.58,.13-1.01-.25-3.06-.76-4.04-.29-.57-1.66-1.89-1.98-2.59-.45-.98-.88-2.77,.23-3.25,1.64-.73,3.93-.27,5.68-.34,1.97-.09,4.04,.17,6.01,.33,2.78,.23,4.98,.68,7.28,2.37,.49,.36,2.26,3,2.56,3.29,.35,.34,.66,.64,.82,1,1.03,2.3,2.03,4.92,2.43,8.57,.48,4.39-1.04,15-4.4,17.95Zm27.76-8.26c-.37,.88-1.3,1.49-2.19,2.07-.16,.11-.32,.21-.48,.32-1.45,.99-3.01,1.45-4.66,1.93-1,.29-2.03,.59-3.06,1.02-1.81,.76-3.62,1.37-5.46,1.98-.59,.2-1.49,.43-2.34,.45-4.18,.13-1.34-4.81-.07-6.5,1.01-1.34,.66-3.08,.88-4.62,.12-.82,.12-1.65,.14-2.49,.07-3.18-.45-6.37-.28-9.57,.32-5.89-.85-11.8-.6-17.65,.06-1.09,.05-2.07-.73-2.87-.61-.62-1.42-.94-1.8-1.78-.58-1.27-1.5-4.09-.73-4.43,1.09-.35,2.28,0,3.36,.17,1.34,.22,2.65,.33,3.97,.69,2.55,.7,4.98,1.76,7.42,2.76,1.71,.7,3.61,.83,5.29,1.55,1.22,.53,.66,2.28,.38,3.26-.38,1.32-.72,2.25-1.55,2.33-.96,.09-2.12-.41-3.24-.9-.61-.26-1.19-.51-1.76-.68-.25-.07-.5-.14-.75-.21-1.67-.46-4.12-1.34-3.18,1.36,.09,.25,.17,.48,.2,.68,.03,.19,.06,.4,.07,.67,0,.15,.02,.3,.02,.45,0,.23,.02,.46,.04,.69,.17,2.03,.45,2.87,.37,4.95-.04,.86,.24,2.96,.38,3.52,.23,.93,1.86,.29,2.68,.32,1.36,.04,2.73,0,4.09,0,1.51,0,2.06,.47,2.2,1.88,.1,.95,.44,2.99-.26,3.76-.44,.48-2.71,.19-3.76,.16-1.25-.03-2.51-.08-3.77,.01-1.51,.11-2,1.05-1.86,2.51,.05,.56-.29,5.73-.35,7.15-.03,.84-.09,1.68-.07,2.52,.01,.68-.09,1.66,.85,1.2,1.54-.76,3.4-.68,5.03-1.25,.64-.22,1.2-.36,1.73-.52,.63-.19,1.3-.37,1.89-.63,.43-.19,.97-.52,1.35-.08,.6,.7,.96,2.96,.61,3.79Z"/></svg>