<?xml version="1.0" encoding="utf-8"?>
<!-- Generator: Adobe Illustrator 21.1.0, SVG Export Plug-In . SVG Version: 6.00 Build 0)  -->
<svg version="1.1" id="Layer_1" xmlns="http://www.w3.org/2000/svg" xmlns:xlink="http://www.w3.org/1999/xlink" x="0px" y="0px"
	 viewBox="0 0 150 150" style="enable-background:new 0 0 150 150;" xml:space="preserve">
<g>
	<path d="M16.1,94.8h-1.9l-0.4-4.2h1.9L16.1,94.8z M133.8,94.8h1.9l0.4-4.2h-1.9L133.8,94.8z M12.6,90.7h-1.9l0.4,4.2H13L12.6,90.7z
		 M136.9,94.8h1.9l0.4-4.2h-1.9L136.9,94.8z M25.9,95.9c0,1.5-1.1,2.7-2.6,2.7c-1.6,0-2.7-1.3-2.7-2.8l0,0c0-1.5,1.1-2.7,2.6-2.7
		C24.8,93.1,25.9,94.4,25.9,95.9L25.9,95.9 M17.7,95.9c0,2.9,2.4,5.3,5.6,5.3s5.6-2.4,5.6-5.3l0,0c0-2.9-2.4-5.3-5.6-5.3
		C20.1,90.5,17.7,92.9,17.7,95.9L17.7,95.9 M30.6,100.9h2.9v-3.6h4.9V95h-4.9v-1.7H39v-2.5h-8.3v10.1H30.6z M40.6,100.9h2.9v-3.6
		h4.9V95h-4.9v-1.7H49v-2.5h-8.3v10.1H40.6z M57.1,100.9H60v-7.7h3.1v-2.5H54v2.5h3.1V100.9z M64.9,100.9h2.9V97h3.7v3.9h2.9V90.7
		h-2.9v3.8h-3.7v-3.8h-2.9V100.9z M76.4,100.9h8.4v-2.4h-5.6v-1.6h5v-2.2h-5v-1.5h5.5v-2.4h-8.4L76.4,100.9L76.4,100.9z M92.7,101
		h2.5l2.1-5.9l2.1,5.9h2.5l3.5-10.3h-3l-1.8,5.9l-2-5.9h-2.5l-2,5.9l-1.8-5.9h-3L92.7,101z M108.7,96.9l1.2-2.9l1.2,2.9H108.7z
		 M104.1,100.9h3l0.7-1.8h4l0.8,1.8h3.1l-4.4-10.3h-2.8L104.1,100.9z M117.1,100.9h7.9v-2.5h-5v-7.7h-2.9V100.9z M126.6,100.9h7.9
		v-2.5h-5v-7.7h-2.9V100.9z M139.3,99.8c0-0.7-0.5-1.2-1.2-1.2s-1.2,0.6-1.2,1.2c0,0.7,0.5,1.2,1.2,1.2S139.3,100.4,139.3,99.8z
		 M139.2,99.8c0,0.6-0.5,1.1-1.1,1.1s-1.1-0.5-1.1-1.1s0.5-1.1,1.1-1.1C138.7,98.7,139.2,99.1,139.2,99.8z M138.7,99.5
		c0-0.3-0.2-0.4-0.5-0.4h-0.6v1.3h0.3V100h0.2l0.3,0.4h0.3l-0.3-0.5C138.6,99.8,138.7,99.7,138.7,99.5z M138.4,99.5
		c0,0.1-0.1,0.2-0.2,0.2h-0.3v-0.4h0.3C138.3,99.3,138.4,99.4,138.4,99.5z"/>
	<path d="M122.1,65h-5.6c-0.5-1.4-1.1-2.4-4.3-2.4c-2.2,0-3.1,0.9-3.1,1.8c0,1,0.8,1.8,3.2,2.3l5.1,1.4c3.3,0.9,4.9,3.5,4.9,6.3
		c0,1.5-0.3,3.4-1.8,4.9c-1.1,1.1-2.8,2.6-8.2,2.6c-7.6,0-10-4.8-10-7.7h5.9c0.6,2.1,2,2.9,4.9,2.9c2,0,3.7-0.7,3.7-2.2
		c0-1.4-1.2-2-2.8-2.4l-4-1.1c-1.9-0.6-3.5-1.1-4.7-2c-3-2.5-2.8-7.1,0.5-9.4c1.8-1.3,3.6-2,6.5-2c3.4,0,5.4,1,6.9,2
		C120.4,60.9,122.1,63.2,122.1,65 M27.7,48.9c0,0.2,11.7,32.8,11.7,32.8h6.9L57,54.6h66.5l0.5-5.7H52l-8.9,22.5l-8-22.5L27.7,48.9
		 M85.2,69.9l8.7,11.7h5.4V58.5H93v12.6l-7.9-12.6h-6v23.2h6V69.9H85.2z M124.3,80.4c0-0.7-0.5-1.2-1.2-1.2s-1.2,0.6-1.2,1.2
		c0,0.7,0.5,1.2,1.2,1.2C123.8,81.7,124.3,81.1,124.3,80.4z M124.2,80.4c0,0.6-0.5,1.1-1.1,1.1S122,81,122,80.4s0.5-1.1,1.1-1.1
		S124.2,79.8,124.2,80.4z M123.7,80.2c0-0.3-0.2-0.4-0.5-0.4h-0.6v1.3h0.3v-0.4h0.2l0.3,0.4h0.3l-0.3-0.5
		C123.5,80.5,123.7,80.4,123.7,80.2z M123.4,80.2c0,0.1-0.1,0.2-0.2,0.2h-0.3V80h0.3C123.3,80,123.4,80.1,123.4,80.2z M52.1,81.6
		h6.7L60,78h8.8l1.3,3.6h6.6l-8.4-23.2h-7.1L52.1,81.6z M61.9,73.8l2.6-7.7l2.5,7.7H61.9z"/>
</g>
</svg>
